<svg width="121" height="138" viewBox="0 0 121 138" fill="none" xmlns="http://www.w3.org/2000/svg">
<path d="M87.6575 23.1024C84.3033 15.8818 81.0577 3.74231 70.7074 5.33648C70.6406 5.34678 70.572 5.36505 70.5088 5.3893C63.7981 7.96502 59.5447 12.0368 55.2361 17.7376C54.2294 19.0696 51.9767 22.537 50.8931 23.4994L50.8745 23.5159C43.3905 30.163 40.2695 32.935 37.7645 42.754C37.7114 42.9622 37.5928 43.1526 37.4269 43.2892C29.081 50.1604 21.272 57.865 20.3004 69.0597C19.6511 76.5438 18.4432 76.993 15.6884 83.6022C12.7699 90.6045 15.6762 100.679 20.4893 106.201C22.0252 108.106 24.2041 110.063 25.918 111.716C25.9633 111.76 26.01 111.797 26.0627 111.832C42.5836 122.612 81.7626 135.503 106.963 101.179C107.93 99.3825 108.18 96.5566 108.865 93.9677C109.667 90.9335 111.048 87.4639 111.587 84.3873C113.208 75.1295 111.058 65.0788 107.014 56.7092C104.656 51.8279 101.538 48.6003 97.8555 44.8042C97.6994 44.6434 97.6018 44.4342 97.5777 44.2114C96.7846 36.8529 95.2079 29.8139 89.2465 24.8751C88.8185 24.5207 87.8823 23.5858 87.6575 23.1024Z" fill="#4F270B"/>
<path d="M41.5796 40.5111C41.7687 39.9777 41.9661 39.4478 42.1724 38.921C48.0937 23.7662 67.4577 18.5604 81.6267 24.1856C90.6532 27.4118 92.2858 33.4372 94.0481 41.7839C88.7636 39.2606 85.7369 37.9432 79.97 36.3657C66.4108 33.9181 54.2342 35.0522 41.5796 40.5111Z" fill="#FD968D"/>
<path d="M81.6267 24.1856C90.6532 27.4118 92.2858 33.4372 94.0481 41.7839C88.7636 39.2606 85.7369 37.9432 79.9701 36.3657C80.4778 35.4426 81.0836 34.9575 81.6943 34.1488C84.2517 30.7639 82.0901 27.9474 81.6622 24.4883L81.6267 24.1856Z" fill="#FF695C"/>
<path d="M55.5694 27.1729C57.0224 26.7403 59.3513 25.7034 60.4672 26.9222C59.8334 29.09 54.5731 31.5705 52.605 32.5554C51.4241 33.2719 49.6774 34.2422 48.4095 33.4717L48.4557 32.5631C49.992 29.6307 52.7376 28.5474 55.5694 27.1729Z" fill="#FFD9D5"/>
<path d="M23.0146 71.0875C23.6572 67.6762 24.3256 64.6947 25.6646 61.4666C34.8588 39.2988 66.6813 33.7108 86.8736 42.3549C88.7536 46.9736 92.5863 51.8055 90.317 57.111C88.5299 61.2895 85.7755 61.9014 83.0725 63.8353C81.522 63.2305 77.1714 62.1361 75.485 61.8252C62.4939 59.4296 46.7275 59.6505 34.3386 64.5689C30.3842 66.1387 26.5067 68.7556 23.0146 71.0875Z" fill="#FD968D"/>
<path d="M44.662 47.3713C47.2755 46.5752 48.5506 46.1618 51.2338 46.7819C52.7733 49.0413 39.5054 55.7384 37.4052 57.2156C36.0774 58.1123 33.199 60.4517 31.9286 58.8229C31.9097 53.9564 40.6839 49.0464 44.662 47.3713Z" fill="#FFD9D5"/>
<path d="M86.8735 42.3549C104.512 49.6614 111.633 68.8017 107.371 86.6883C104.823 77.8557 98.3692 71.611 90.4576 67.2441C88.0739 65.9455 85.6069 64.8067 83.0724 63.8353C85.7755 61.9014 88.5298 61.2895 90.3169 57.111C92.5863 51.8055 88.7536 46.9736 86.8735 42.3549Z" fill="#FF695C"/>
<path d="M56.1235 21.2173C59.8254 16.5148 67.6214 6.4664 74.3876 8.27039C77.5986 10.3283 79.0906 12.2108 80.8758 15.5672C81.8542 17.2907 82.4843 18.9651 83.2253 20.7954C78.4333 19.5782 75.6249 18.9602 70.6023 18.6885C66.7734 18.5971 64.2516 19.0325 60.5154 19.7697C59.1867 20.0467 57.437 20.7425 56.1235 21.2173Z" fill="#FD968D"/>
<path d="M56.1235 21.2173C59.8254 16.5148 67.6214 6.4664 74.3876 8.27039C73.3973 12.1486 64.2543 15.4576 61.8083 18.9486C61.5648 19.2962 60.9041 19.5887 60.5154 19.7697C59.1867 20.0467 57.437 20.7425 56.1235 21.2173Z" fill="#FFD9D5"/>
<path d="M68.5729 14.051C71.3005 13.9796 72.8654 13.9406 75.5423 14.4749C77.1181 14.7895 79.6062 15.8881 80.8758 15.5673C81.8543 17.2908 82.4844 18.9652 83.2254 20.7954C78.4334 19.5783 75.625 18.9603 70.6023 18.6885C70.5934 17.6914 69.1599 15.3723 68.5729 14.051Z" fill="#FF695C"/>
<ellipse cx="61.5678" cy="91.4094" rx="43.6992" ry="27.6336" transform="rotate(2.50261 61.5678 91.4094)" fill="#FD968D"/>
<path d="M22.2628 91.7034C24.5371 81.6983 35.2676 76.229 44.5852 74.7467C48.7376 74.0864 61.8643 72.7202 67.7551 75.1355C74.0407 75.963 84.2455 80.3873 85.4447 74.54C85.9395 72.1257 85.5563 71.3528 85.6633 69.0551C94.4335 72.9592 103.023 80.2631 104.689 90.153C105.276 93.6379 104.764 95.6162 104.115 98.9083C100.872 105.036 93.323 117.222 65.5888 119.028C44.8446 120.378 30.4759 111.106 24.8747 105.372C24.8624 105.422 24.8497 105.473 24.8373 105.523C23.5748 103.881 21.7988 102.036 20.8179 100.339C22.2205 98.9122 21.7522 93.9497 22.2628 91.7034ZM62.5872 82.2964C56.8979 82.6249 50.2564 82.9299 44.9601 85.1201C42.4505 86.0256 40.1508 87.1784 38.1285 88.3919C29.5997 93.8907 22.049 104.545 53.6816 107.973C86.6289 111.544 91.1655 102.245 89.3155 97.1484C86.5739 90.4158 79.4079 84.7744 62.5872 82.2964Z" fill="#FF695C"/>
<path d="M62.5887 81.5711C46.7461 79.9581 34.8411 89.5974 30.8689 94.6187C29.8162 95.5751 29.0838 98.0258 30.5797 100.646C31.727 102.655 32.8744 104.665 43.2057 107.826C53.5371 110.987 73.0538 111.568 84.1055 107.123C92.9468 103.567 90.376 96.1711 87.9854 92.9174C86.1209 89.8074 78.4313 83.1842 62.5887 81.5711Z" fill="#4F270B"/>
<path d="M62.0677 32.2869C62.4173 33.9717 60.5247 35.154 59.0044 34.2008L58.4168 33.8322L57.0584 34.6945C55.4864 35.6917 53.3835 34.1758 53.9092 32.4243L54.257 31.2659L53.3933 30.6506C51.679 29.429 52.6521 26.896 54.7341 27.1609L55.8549 27.3043L56.25 26.1903C56.8845 24.4014 59.5908 24.5772 60.1491 26.4436L60.4686 27.5118L61.3779 27.4892C63.5078 27.4354 64.4207 30.1595 62.6061 31.1542L61.9112 31.5355L62.0677 32.2869Z" fill="#2E8641" stroke="#4F270B" stroke-width="2"/>
<ellipse cx="1.48314" cy="1.38042" rx="1.48314" ry="1.38042" transform="matrix(-0.944746 0.327802 -0.387856 -0.92172 59.8881 31.317)" fill="#3CBF58"/>
<path d="M83.2695 48.2646C83.5834 46.4933 85.8942 46.0043 86.8984 47.4971L88.0107 49.1514L91.412 48.2852C93.22 47.8244 94.6186 49.871 93.5322 51.3877L91.5068 54.2139L93.2958 57.2549C94.3314 59.0159 92.3712 61.0138 90.5908 60.0117L87.831 58.458L85.8828 60.9326C84.6466 62.5028 82.1252 61.4888 82.3203 59.5L82.6513 56.127L79.4833 54.9951C77.5579 54.3067 77.7847 51.5138 79.7958 51.1445L82.8593 50.582L83.2695 48.2646Z" fill="#2E8641" stroke="#4F270B" stroke-width="2"/>
<circle cx="86.3154" cy="54" r="2" fill="#3CBF58"/>
</svg>
