<svg width="124" height="138" viewBox="0 0 124 138" fill="none" xmlns="http://www.w3.org/2000/svg">
<path d="M90.3421 23.1025C86.9879 15.8818 83.7423 3.74232 73.3921 5.33649C73.3252 5.34679 73.2566 5.36507 73.1935 5.38931C66.4827 7.96503 62.2293 12.0368 57.9208 17.7376C56.914 19.0696 54.6614 22.537 53.5777 23.4994L53.5591 23.5159C46.0751 30.163 42.9541 32.935 40.4492 42.754C40.3961 42.9622 40.2774 43.1526 40.1115 43.2892C31.7656 50.1604 23.9566 57.865 22.985 69.0598C22.3358 76.5438 21.1279 76.993 18.373 83.6022C15.4545 90.6045 18.3608 100.679 23.1739 106.201C24.7099 108.106 26.8887 110.063 28.6026 111.716C28.6479 111.76 28.6946 111.797 28.7473 111.832C45.2682 122.612 84.4473 135.503 109.648 101.179C110.615 99.3825 110.865 96.5566 111.549 93.9677C112.351 90.9335 113.732 87.4639 114.271 84.3873C115.893 75.1295 113.743 65.0788 109.699 56.7092C107.34 51.8279 104.222 48.6003 100.54 44.8042C100.384 44.6434 100.286 44.4342 100.262 44.2114C99.4692 36.8529 97.8926 29.8139 91.9312 24.8751C91.5031 24.5207 90.567 23.5858 90.3421 23.1025Z" fill="#4F270B"/>
<path d="M44.2643 40.5111C44.4533 39.9777 44.6507 39.4478 44.857 38.921C50.7783 23.7662 70.1424 18.5604 84.3113 24.1856C93.3378 27.4118 94.9704 33.4372 96.7327 41.7839C91.4482 39.2606 88.4215 37.9432 82.6547 36.3657C69.0954 33.9181 56.9188 35.0523 44.2643 40.5111Z" fill="#FD968D"/>
<path d="M84.3113 24.1856C93.3379 27.4118 94.9705 33.4372 96.7327 41.7839C91.4483 39.2606 88.4215 37.9432 82.6547 36.3657C83.1624 35.4426 83.7683 34.9575 84.379 34.1488C86.9363 30.7639 84.7747 27.9474 84.3468 24.4883L84.3113 24.1856Z" fill="#FF695C"/>
<path d="M58.254 27.1729C59.707 26.7403 62.0359 25.7034 63.1519 26.9222C62.518 29.09 57.2578 31.5705 55.2897 32.5554C54.1087 33.2719 52.3621 34.2422 51.0942 33.4717L51.1403 32.5631C52.6767 29.6307 55.4223 28.5474 58.254 27.1729Z" fill="#FFD9D5"/>
<path d="M25.6992 71.0875C26.3418 67.6762 27.0103 64.6947 28.3492 61.4666C37.5434 39.2988 69.3659 33.7108 89.5582 42.3549C91.4382 46.9737 95.271 51.8055 93.0016 57.111C91.2145 61.2895 88.4601 61.9014 85.7571 63.8353C84.2066 63.2305 79.856 62.1361 78.1696 61.8252C65.1785 59.4296 49.4121 59.6505 37.0232 64.5689C33.0689 66.1387 29.1914 68.7556 25.6992 71.0875Z" fill="#FD968D"/>
<path d="M47.3466 47.3713C49.9601 46.5752 51.2352 46.1618 53.9184 46.7819C55.4579 49.0413 42.19 55.7384 40.0898 57.2156C38.762 58.1123 35.8836 60.4517 34.6133 58.8229C34.5943 53.9564 43.3685 49.0464 47.3466 47.3713Z" fill="#FFD9D5"/>
<path d="M89.5582 42.3549C107.197 49.6614 114.317 68.8017 110.056 86.6883C107.508 77.8557 101.054 71.611 93.1423 67.2441C90.7585 65.9455 88.2915 64.8067 85.757 63.8353C88.4601 61.9014 91.2144 61.2895 93.0015 57.111C95.2709 51.8055 91.4382 46.9737 89.5582 42.3549Z" fill="#FF695C"/>
<path d="M58.8081 21.2173C62.51 16.5148 70.306 6.46639 77.0722 8.27038C80.2832 10.3283 81.7752 12.2108 83.5604 15.5672C84.5388 17.2907 85.1689 18.9651 85.9099 20.7954C81.1179 19.5782 78.3095 18.9602 73.2869 18.6884C69.4581 18.5971 66.9363 19.0325 63.2 19.7696C61.8713 20.0467 60.1216 20.7425 58.8081 21.2173Z" fill="#FD968D"/>
<path d="M58.8081 21.2173C62.51 16.5148 70.306 6.46639 77.0722 8.27038C76.0819 12.1486 66.9389 15.4576 64.4929 18.9486C64.2494 19.2962 63.5888 19.5887 63.2 19.7696C61.8713 20.0467 60.1216 20.7425 58.8081 21.2173Z" fill="#FFD9D5"/>
<path d="M71.2575 14.051C73.9852 13.9796 75.55 13.9406 78.2269 14.4749C79.8027 14.7895 82.2908 15.888 83.5605 15.5673C84.5389 17.2908 85.169 18.9652 85.91 20.7954C81.118 19.5783 78.3096 18.9603 73.287 18.6885C73.278 17.6914 71.8445 15.3723 71.2575 14.051Z" fill="#FF695C"/>
<ellipse cx="64.2525" cy="91.4094" rx="43.6992" ry="27.6336" transform="rotate(2.50261 64.2525 91.4094)" fill="#FD968D"/>
<path d="M24.9474 91.7034C27.2218 81.6983 37.9522 76.229 47.2699 74.7467C51.4223 74.0864 64.5489 72.7202 70.4398 75.1355C76.7254 75.963 86.9301 80.3873 88.1293 74.54C88.6241 72.1257 88.2409 71.3528 88.3479 69.0551C97.1181 72.9592 105.707 80.2631 107.373 90.153C107.961 93.6379 107.448 95.6162 106.8 98.9083C103.556 105.036 96.0076 117.222 68.2734 119.028C47.5292 120.378 33.1606 111.106 27.5594 105.372C27.547 105.422 27.5343 105.473 27.522 105.523C26.2594 103.881 24.4834 102.036 23.5025 100.339C24.9051 98.9122 24.4368 93.9497 24.9474 91.7034ZM65.2719 82.2965C59.5826 82.6249 52.941 82.9299 47.6447 85.1201C45.1352 86.0256 42.8354 87.1785 40.8132 88.3919C32.2844 93.8908 24.7337 104.545 56.3662 107.973C89.3135 111.544 93.8501 102.245 92.0001 97.1484C89.2586 90.4158 82.0925 84.7744 65.2719 82.2965Z" fill="#FF695C"/>
<path d="M65.2734 81.5711C49.4308 79.9581 37.5258 89.5974 33.5536 94.6187C32.5008 95.5751 31.7685 98.0258 33.2644 100.646C34.4116 102.655 35.559 104.665 45.8904 107.826C56.2217 110.987 75.7385 111.568 86.7901 107.123C95.6315 103.567 93.0606 96.1711 90.67 92.9174C88.8055 89.8074 81.116 83.1842 65.2734 81.5711Z" fill="#4F270B"/>
<path d="M64.7523 32.2869C65.1018 33.9717 63.2093 35.154 61.6889 34.2008L61.1014 33.8321L59.7429 34.6944C58.171 35.6917 56.068 34.1758 56.5938 32.4243L56.9416 31.2659L56.0779 30.6506C54.3636 29.4289 55.3367 26.896 57.4187 27.1609L58.5395 27.3043L58.9346 26.1903C59.5691 24.4014 62.2753 24.5772 62.8337 26.4436L63.1532 27.5118L64.0625 27.4892C66.1924 27.4353 67.1052 30.1595 65.2906 31.1541L64.5958 31.5355L64.7523 32.2869Z" fill="#2E8641" stroke="#4F270B" stroke-width="2"/>
<ellipse cx="1.48314" cy="1.38042" rx="1.48314" ry="1.38042" transform="matrix(-0.944746 0.327802 -0.387856 -0.92172 62.5727 31.317)" fill="#3CBF58"/>
<path d="M85.9541 48.2646C86.268 46.4933 88.5788 46.0043 89.583 47.497L90.6953 49.1513L94.0967 48.2851C95.9046 47.8244 97.3032 49.871 96.2168 51.3877L94.1914 54.2138L95.9805 57.2549C97.016 59.0159 95.0558 61.0137 93.2754 60.0117L90.5156 58.458L88.5674 60.9326C87.3312 62.5028 84.8098 61.4888 85.0049 59.5L85.3359 56.1269L82.168 54.9951C80.2426 54.3067 80.4693 51.5138 82.4805 51.1445L85.5439 50.582L85.9541 48.2646Z" fill="#2E8641" stroke="#4F270B" stroke-width="2"/>
<circle cx="89" cy="54" r="2" fill="#3CBF58"/>
<path d="M52.1674 78.0121C54.9205 77.8095 57.2575 80.1875 57.9294 82.7333C60.4325 82.0808 65.9903 82.2025 68.568 82.7612C69.2852 81.0229 71.0327 78.9454 72.9478 78.7385C77.6916 78.2259 78.937 81.7447 79.5442 85.6786C79.7847 87.2362 80.327 87.9836 81.461 89.1243C83.6617 91.3378 85.5872 93.6054 85.8292 96.8899C89.2932 96.949 93.4048 98.2101 95.9237 100.721C98.9139 103.701 100.971 107.19 100.999 111.559C101.013 113.65 100.802 115.85 99.2826 117.413C99.1151 117.445 98.9469 117.473 98.7781 117.496C97.5323 117.669 96.9705 117.04 96.0317 116.319C95.9403 117.585 95.2846 120.077 94.6652 121.201C91.6993 126.583 89.5327 120.109 88.8426 117.613C86.2085 124.172 82.0036 127.606 74.9521 128.281C70.0471 128.75 69.0765 127.387 71.5125 122.916C69.4378 123.514 66.3447 124.487 66.3316 121.088C66.3167 118.271 68.6313 113.818 70.1444 111.417C69.4781 111.529 68.1784 111.543 67.4588 111.585C63.2445 111.833 58.2118 111.53 54.2374 109.943C54.558 110.693 55.0318 111.459 55.3715 112.18C56.4039 114.372 57.374 117.706 56.5393 120.094C56.0125 121.602 55.3123 122.089 54.0083 122.757C51.8784 121.891 50.6708 120.548 48.9825 119.671C50.0586 120.882 51.3944 123.146 51.5246 124.805C51.6133 126.586 49.9361 127.309 48.4689 127.307C43.1607 127.299 37.5235 124.489 35.6172 119.213C35.2276 118.134 34.8522 117.424 34.8164 116.262C33.8845 117.128 33.1901 118.618 31.735 118.857C31.3357 118.923 30.9925 118.805 30.672 118.554C29.6768 117.778 29.2286 115.519 29.0833 114.318C28.6189 110.479 30.1438 105.874 32.4632 102.875C34.2701 100.539 37.0177 99.2847 39.7907 98.5837C40.4444 98.4184 41.2264 98.1796 41.8971 98.1072C41.8192 94.5789 42.8781 91.5992 45.1696 88.9384C45.6671 88.3607 46.1589 87.6999 46.7579 87.2291C46.7135 83.3833 48.0809 79.0754 52.1674 78.0121Z" fill="#4E280A"/>
<path d="M58.6324 84.794C60.994 84.5039 63.3306 84.4122 65.7003 84.6613C66.4736 84.7426 67.2267 84.8638 68.006 84.8771C67.9869 86.3385 67.9493 87.0936 68.3976 88.5058C69.8834 93.1869 73.3195 94.71 77.379 91.5979C77.8124 91.0214 78.4227 90.1676 78.9013 89.6569C82.0152 92.9252 86.1891 98.7745 81.9572 102.95C80.364 104.522 78.4253 105.082 76.4214 105.893C75.5405 106.259 74.2265 107.352 73.3205 107.856C71.0167 109.136 66.669 109.5 64.0598 109.404C58.8008 109.212 53.2608 108.117 49.1747 104.546C48.737 104.265 48.3222 103.949 47.9343 103.602C46.2345 102.084 44.4709 99.2259 44.3611 96.8952C44.2318 94.1511 45.8173 91.4276 47.5435 89.4519C49.2215 91.1997 51.6291 93.2579 54.2682 92.3865C57.1836 91.4239 58.1516 87.49 58.6324 84.794Z" fill="#EB5B2A"/>
<path d="M78.9013 89.6569C82.0152 92.9252 86.1891 98.7746 81.9572 102.95C80.364 104.522 78.4253 105.082 76.4214 105.893C75.5406 106.259 74.2265 107.352 73.3205 107.856C71.0167 109.136 66.6691 109.5 64.0598 109.404C58.8009 109.212 53.2608 108.117 49.1747 104.546C50.7818 104.008 53.7212 106.01 55.506 106.107C61.3952 106.427 67.0348 106.537 72.6748 104.513C77.5437 102.765 80.8021 98.7589 78.891 93.4415C78.6245 92.6944 78.104 91.9309 77.379 91.5979C77.8125 91.0214 78.4227 90.1676 78.9013 89.6569Z" fill="#E1420D"/>
<path d="M57.2755 94.3309C58.4782 94.7248 59.0275 95.883 59.764 96.8209C62.8923 100.804 65.6869 94.9678 67.6575 95.3707C67.8564 95.4114 67.9858 95.5298 68.0792 95.7089C68.2682 96.0714 68.1238 97.0996 68.0105 97.4944C64.0362 102.508 55.0876 99.9986 57.2755 94.3309Z" fill="#4E280A"/>
<path d="M72.2315 126.273C73.1639 124.798 78.3637 117.799 76.8487 116.552C74.8584 116.067 70.7394 122.005 68.8801 121.008C67.8333 119.915 70.6637 114.821 71.3182 113.798C73.0945 111.022 75.7727 108.087 79.0679 107.281C80.2529 106.992 82.7165 106.983 83.7327 107.659C88.0568 109.926 88.2675 114.456 86.1219 118.427C84.0437 122.272 81.1488 124.687 76.9681 125.738C75.0937 126.14 73.8522 125.993 72.2315 126.273Z" fill="#EB5B2A"/>
<path d="M83.7328 107.659C88.0569 109.926 88.2675 114.456 86.1219 118.427C84.0437 122.272 81.1488 124.687 76.9681 125.738C77.1457 124.491 79.1317 123.476 80.2014 122.544C80.983 121.861 81.7038 121.109 82.3554 120.297C84.5853 117.494 85.573 114.255 84.7494 110.71C84.5373 109.797 83.8019 108.579 83.7328 107.659Z" fill="#E1420D"/>
<path d="M49.6731 125.071C45.9616 124.826 43.1562 124.724 40.1739 122.049C35.4382 117.802 35.6108 108.297 42.094 105.898C45.2141 104.743 47.9012 106.822 50.0809 108.895C52.2609 110.796 54.4189 114.265 54.6181 117.226C54.9338 121.916 51.0949 118.739 49.5496 117.181C49.302 116.936 49.0664 116.678 48.8434 116.41C48.43 115.926 47.7848 115.083 47.2226 114.884C45.7388 114.358 45.7421 115.552 45.9315 116.555C46.5136 119.641 48.2324 122.388 49.6731 125.071Z" fill="#EB5B2A"/>
<path d="M50.0809 108.895C52.2608 110.796 54.4189 114.265 54.618 117.226C54.9337 121.916 51.0948 118.739 49.5495 117.181C49.302 116.936 49.0664 116.678 48.8433 116.41C50.1862 114.477 50.1235 112.918 50.0361 110.654C50.0155 110.122 49.9936 109.409 50.0809 108.895Z" fill="#E1420D"/>
<path d="M85.0064 102.844C93.0343 101.611 96.2601 116.86 92.4486 120.468C91.5019 118.998 90.7934 117.237 90.3095 115.569C89.3843 112.38 88.943 108.934 86.288 106.655C85.2929 105.8 84.2044 105.359 83.0958 104.626C83.6726 103.999 84.3302 103.358 85.0064 102.844Z" fill="#E1420D"/>
<path d="M39.5342 100.92C40.673 100.597 41.058 100.46 42.2112 100.423C43.23 101.018 43.8965 102.056 44.562 103.042C41.5597 103.877 37.8848 104.716 36.4129 107.777C34.7146 111.31 34.3027 113.619 31.3588 116.459C31.3333 115.527 31.2231 112.975 31.3884 112.21C31.5103 106.881 34.6148 102.702 39.5342 100.92Z" fill="#E1420D"/>
<path d="M39.5343 100.92C39.126 101.883 36.9113 104.617 36.1802 105.658C35.4617 106.682 32.4217 112.145 31.8499 112.441C31.6275 112.434 31.5323 112.43 31.3884 112.21C31.5103 106.881 34.6148 102.702 39.5343 100.92Z" fill="#EB5B2A"/>
<path d="M85.5917 99.4577C86.1001 99.4533 87.8494 99.4057 88.2434 99.4691C91.2491 99.9527 93.9354 101.462 95.8602 103.796C98.6335 107.159 98.933 110.775 98.5425 114.96C97.0565 115.269 95.156 109.114 94.7812 108.08C94.5236 107.356 94.2305 106.646 93.903 105.952C92.8588 103.755 90.8697 102.223 88.6607 101.32C87.8379 100.984 86.8684 100.796 86.0971 100.311C85.6927 100.057 85.683 99.9136 85.5917 99.4577Z" fill="#E1420D"/>
<path d="M73.8936 81.0132C74.9378 80.8784 75.8942 81.6214 76.037 82.6782C76.1798 83.7351 75.4557 84.7112 74.4141 84.8658C73.3586 85.0225 72.3796 84.2767 72.2349 83.2057C72.0901 82.1347 72.8353 81.1498 73.8936 81.0132Z" fill="white"/>
<path d="M52.2619 80.5484C52.6688 80.4567 53.0942 80.5031 53.4727 80.6803C54.2157 81.0284 54.6554 81.8192 54.5643 82.6436C54.4733 83.4678 53.8719 84.1405 53.0714 84.3136C52.3333 84.4731 51.572 84.1752 51.1313 83.5545C50.6906 82.9338 50.6538 82.1077 51.0376 81.4493C51.3052 80.9903 51.7484 80.6642 52.2619 80.5484Z" fill="white"/>
</svg>
