<svg width="124" height="138" viewBox="0 0 124 138" fill="none" xmlns="http://www.w3.org/2000/svg">
<path d="M90.3421 23.1024C86.9879 15.8818 83.7423 3.74231 73.3921 5.33648C73.3252 5.34678 73.2566 5.36505 73.1935 5.3893C66.4827 7.96502 62.2293 12.0368 57.9208 17.7376C56.914 19.0696 54.6614 22.537 53.5777 23.4994L53.5591 23.5159C46.0751 30.163 42.9541 32.935 40.4492 42.754C40.3961 42.9622 40.2774 43.1526 40.1115 43.2892C31.7656 50.1604 23.9566 57.865 22.985 69.0597C22.3358 76.5438 21.1279 76.993 18.373 83.6022C15.4545 90.6045 18.3608 100.679 23.1739 106.201C24.7099 108.106 26.8887 110.063 28.6026 111.716C28.6479 111.76 28.6946 111.797 28.7473 111.832C45.2682 122.612 84.4473 135.503 109.648 101.179C110.615 99.3825 110.865 96.5566 111.549 93.9677C112.351 90.9335 113.732 87.4639 114.271 84.3873C115.893 75.1295 113.743 65.0788 109.699 56.7092C107.34 51.8279 104.222 48.6003 100.54 44.8042C100.384 44.6434 100.286 44.4342 100.262 44.2114C99.4692 36.8529 97.8926 29.8139 91.9312 24.8751C91.5031 24.5207 90.567 23.5858 90.3421 23.1024Z" fill="#4F270B"/>
<path d="M44.2643 40.5111C44.4533 39.9777 44.6507 39.4478 44.857 38.921C50.7783 23.7662 70.1424 18.5604 84.3113 24.1856C93.3378 27.4118 94.9704 33.4372 96.7327 41.7839C91.4482 39.2606 88.4215 37.9432 82.6547 36.3657C69.0954 33.9181 56.9188 35.0522 44.2643 40.5111Z" fill="#69EED3"/>
<path d="M84.3113 24.1856C93.3379 27.4118 94.9705 33.4372 96.7327 41.7839C91.4483 39.2606 88.4215 37.9432 82.6547 36.3657C83.1624 35.4426 83.7683 34.9575 84.379 34.1488C86.9363 30.7639 84.7747 27.9474 84.3468 24.4883L84.3113 24.1856Z" fill="#0FD2AB"/>
<path d="M58.254 27.1729C59.707 26.7403 62.0359 25.7034 63.1519 26.9222C62.518 29.09 57.2578 31.5705 55.2897 32.5554C54.1087 33.2719 52.3621 34.2422 51.0942 33.4717L51.1403 32.5631C52.6767 29.6307 55.4223 28.5474 58.254 27.1729Z" fill="#D6F8F1"/>
<path d="M25.6992 71.0875C26.3419 67.6762 27.0103 64.6947 28.3492 61.4666C37.5434 39.2988 69.366 33.7108 89.5582 42.3549C91.4383 46.9736 95.271 51.8055 93.0016 57.111C91.2145 61.2895 88.4602 61.9014 85.7571 63.8353C84.2066 63.2305 79.8561 62.1361 78.1697 61.8252C65.1785 59.4296 49.4121 59.6505 37.0233 64.5689C33.0689 66.1387 29.1914 68.7556 25.6992 71.0875Z" fill="#69EED3"/>
<path d="M47.3466 47.3713C49.9601 46.5752 51.2352 46.1618 53.9185 46.7819C55.4579 49.0413 42.19 55.7384 40.0898 57.2156C38.7621 58.1123 35.8836 60.4517 34.6133 58.8229C34.5943 53.9564 43.3685 49.0464 47.3466 47.3713Z" fill="#D6F8F1"/>
<path d="M89.5582 42.3549C107.197 49.6614 114.317 68.8017 110.056 86.6883C107.508 77.8557 101.054 71.611 93.1423 67.2441C90.7585 65.9455 88.2915 64.8067 85.757 63.8353C88.4601 61.9014 91.2144 61.2895 93.0015 57.111C95.2709 51.8055 91.4382 46.9736 89.5582 42.3549Z" fill="#0FD2AB"/>
<path d="M58.8082 21.2173C62.51 16.5148 70.306 6.46639 77.0723 8.27038C80.2833 10.3283 81.7753 12.2108 83.5604 15.5672C84.5389 17.2907 85.169 18.9651 85.91 20.7954C81.118 19.5782 78.3096 18.9602 73.2869 18.6884C69.4581 18.5971 66.9363 19.0325 63.2 19.7696C61.8714 20.0467 60.1216 20.7425 58.8082 21.2173Z" fill="#69EED3"/>
<path d="M58.8082 21.2173C62.51 16.5148 70.306 6.46639 77.0723 8.27038C76.082 12.1486 66.9389 15.4576 64.4929 18.9486C64.2494 19.2962 63.5888 19.5887 63.2 19.7696C61.8714 20.0467 60.1216 20.7425 58.8082 21.2173Z" fill="#D6F8F1"/>
<path d="M71.2576 14.051C73.9852 13.9796 75.5501 13.9406 78.227 14.4749C79.8028 14.7895 82.2909 15.888 83.5605 15.5673C84.539 17.2908 85.1691 18.9652 85.9101 20.7954C81.1181 19.5783 78.3097 18.9603 73.287 18.6885C73.278 17.6914 71.8446 15.3723 71.2576 14.051Z" fill="#0FD2AB"/>
<ellipse cx="64.2525" cy="91.4094" rx="43.6992" ry="27.6336" transform="rotate(2.50261 64.2525 91.4094)" fill="#69EED3"/>
<path d="M24.9475 91.7037C27.2218 81.6986 37.9523 76.2293 47.2699 74.747C51.423 74.0866 64.5531 72.7186 70.4427 75.1353C76.7287 75.9638 86.9306 80.3864 88.1292 74.5394C88.6239 72.1251 88.2408 71.3522 88.3478 69.0545C97.1181 72.9586 105.707 80.2633 107.374 90.1533C107.961 93.6381 107.448 95.6166 106.8 98.9086C103.556 105.036 96.0073 117.222 68.2733 119.027C47.5294 120.378 33.1608 111.107 27.5595 105.372C27.5471 105.422 27.5342 105.472 27.5219 105.523C26.2594 103.881 24.4835 102.036 23.5026 100.339C24.9052 98.9126 24.437 93.9502 24.9475 91.7037ZM65.2758 82.296C59.5856 82.6246 52.9423 82.9298 47.6448 85.1205C45.1312 86.0274 42.8281 87.1825 40.8035 88.3981C32.2787 93.8988 24.7458 104.546 56.3663 107.973C89.3141 111.544 93.8503 102.244 92 97.1478C89.2586 90.4158 82.0935 84.7743 65.2758 82.296Z" fill="#0FD2AB"/>
<path d="M65.2734 81.5711C49.4308 79.9581 37.5258 89.5974 33.5536 94.6187C32.5008 95.5751 31.7685 98.0258 33.2644 100.646C34.4116 102.655 35.559 104.665 45.8904 107.826C56.2217 110.987 75.7385 111.568 86.7901 107.123C95.6315 103.567 93.0606 96.1711 90.67 92.9174C88.8055 89.8074 81.116 83.1842 65.2734 81.5711Z" fill="#4F270B"/>
<path d="M64.7523 32.2869C65.1019 33.9717 63.2093 35.154 61.689 34.2008L61.1014 33.8322L59.743 34.6945C58.171 35.6917 56.0681 34.1758 56.5938 32.4243L56.9416 31.2659L56.0779 30.6506C54.3636 29.429 55.3367 26.896 57.4188 27.1609L58.5396 27.3043L58.9346 26.1903C59.5692 24.4014 62.2754 24.5772 62.8338 26.4436L63.1532 27.5118L64.0625 27.4892C66.1924 27.4354 67.1053 30.1595 65.2907 31.1542L64.5958 31.5355L64.7523 32.2869Z" fill="#E1420D" stroke="#4F270B" stroke-width="2"/>
<ellipse cx="1.48314" cy="1.38042" rx="1.48314" ry="1.38042" transform="matrix(-0.944746 0.327802 -0.387856 -0.92172 62.5728 31.317)" fill="#EB5B2A"/>
<path d="M85.9541 48.2646C86.268 46.4933 88.5788 46.0043 89.583 47.4971L90.6953 49.1514L94.0967 48.2851C95.9046 47.8244 97.3032 49.871 96.2168 51.3877L94.1914 54.2139L95.9805 57.2549C97.016 59.0159 95.0558 61.0137 93.2754 60.0117L90.5156 58.458L88.5674 60.9326C87.3312 62.5028 84.8098 61.4888 85.0049 59.5L85.3359 56.1269L82.168 54.9951C80.2426 54.3067 80.4693 51.5138 82.4805 51.1445L85.5439 50.582L85.9541 48.2646Z" fill="#E1420D" stroke="#4F270B" stroke-width="2"/>
<circle cx="89" cy="54" r="2" fill="#EB5B2A"/>
</svg>
