<svg width="70" height="82" viewBox="0 0 70 82" fill="none" xmlns="http://www.w3.org/2000/svg">
<path d="M60.1189 14.1747C58.8392 8.89574 58.2879 0.345386 51.1703 0.0043795C51.1028 0.00114179 51.0321 0.00567618 50.9655 0.0171784C46.1412 0.849481 42.7533 3.00658 39.1117 6.24308C38.259 7.00101 36.2857 9.02308 35.4309 9.52302L35.4162 9.53161C29.5422 12.967 27.0752 14.4099 24.1037 20.5743C24.0104 20.7678 23.8573 20.9303 23.668 21.0319C17.1897 24.5093 10.9754 28.6233 8.83714 35.9599C7.40101 40.8879 6.53152 41.0273 3.80149 45.0875C0.909235 49.3892 1.50911 56.5285 3.99556 60.8729C4.76522 62.3457 5.95354 63.9379 6.87846 65.2697C6.91436 65.3214 6.95288 65.3676 6.99787 65.4117C16.6408 74.8444 41.1495 88.6892 62.6114 69.0744C63.5 68 64.0455 66.1398 64.8503 64.4966C65.7935 62.5708 67.1832 60.4306 67.9557 58.4411C70.2807 52.4546 70.1842 45.4322 68.594 39.283C67.6759 35.7329 66.0425 33.169 64.1087 30.1724C63.9872 29.9841 63.9327 29.7604 63.9524 29.5372C64.3937 24.5383 64.2565 19.6522 60.9466 15.5751C60.7072 15.2803 60.2049 14.5287 60.1189 14.1747Z" fill="#4F270B"/>
<path d="M26.9146 19.6764C27.1126 19.3442 27.3158 19.0156 27.5245 18.6902C33.5194 9.32732 47.1911 8.42924 55.9329 14.0938C61.5499 17.463 61.8379 21.7189 61.9022 27.5476C58.6988 25.1499 56.8468 23.8623 53.1936 22.0338C44.4353 18.58 36.1243 17.7112 26.9146 19.6764Z" fill="#FD968D"/>
<path d="M55.933 14.0938C61.5499 17.463 61.8379 21.7189 61.9023 27.5476C58.6988 25.1499 56.8469 23.8623 53.1937 22.0338C53.6573 21.4832 54.1282 21.2392 54.6456 20.779C56.812 18.8529 55.7403 16.6765 55.9163 14.3014L55.933 14.0938Z" fill="#FF695C"/>
<path d="M38.0729 12.61C39.1044 12.5145 40.8036 12.1313 41.3884 13.0972C40.6737 14.465 36.8171 15.4235 35.3666 15.8203C34.4795 16.1424 33.1793 16.5589 32.4327 15.873L32.5852 15.2703C34.0069 13.5109 35.9916 13.1523 38.0729 12.61Z" fill="#FFD9D5"/>
<path d="M10.3846 37.6816C11.2715 35.4818 12.1182 33.5733 13.4472 31.5894C22.5733 17.9651 44.6443 18.4773 57.0184 26.9705C57.6604 30.3169 59.5823 34.0672 57.3519 37.3188C55.5955 39.8797 53.668 39.9213 51.5981 40.8556C50.64 40.2429 47.8712 38.9277 46.7828 38.4937C38.3982 35.1508 27.8039 33.1898 18.8445 34.8284C15.9848 35.3514 13.0365 36.5862 10.3846 37.6816Z" fill="#FD968D"/>
<path d="M28.0623 24.6855C29.9201 24.5017 30.8298 24.3952 32.5448 25.1697C33.2742 26.8896 23.4878 29.6024 21.8829 30.3113C20.8733 30.7345 18.6316 31.9171 17.9982 30.6557C18.6365 27.3923 25.1726 25.2759 28.0623 24.6855Z" fill="#FFD9D5"/>
<path d="M57.0183 26.9705C67.8601 34.2257 70.0714 48.0037 64.8233 59.4191C64.2973 53.1598 60.808 48.112 56.0907 44.1276C54.6672 42.9385 53.1664 41.8455 51.598 40.8556C53.668 39.9212 55.5955 39.8796 57.3519 37.3188C59.5822 34.0672 57.6603 30.3169 57.0183 26.9705Z" fill="#FF695C"/>
<path d="M39.2409 8.69346C42.3505 6.03758 48.9185 0.347194 53.2111 2.46107C55.0874 4.26955 55.8354 5.73055 56.5826 8.21839C57.0077 9.50415 57.2059 10.7104 57.4577 12.0359C54.4094 10.5793 52.6103 9.78956 49.2811 8.93565C46.7277 8.36226 44.9796 8.3167 42.3774 8.31089C41.4501 8.31879 40.1845 8.55099 39.2409 8.69346Z" fill="#FD968D"/>
<path d="M39.2409 8.69346C42.3505 6.03758 48.9185 0.347194 53.2111 2.46107C52.0287 4.9273 45.4596 5.9216 43.3536 7.93367C43.144 8.13402 42.6622 8.24163 42.3774 8.31089C41.4501 8.31879 40.1845 8.55099 39.2409 8.69346Z" fill="#FFD9D5"/>
<path d="M48.5415 5.55676C50.3788 5.87379 51.4326 6.05693 53.1548 6.77303C54.1687 7.19464 55.689 8.26355 56.5826 8.21846C57.0077 9.50421 57.206 10.7105 57.4577 12.036C54.4095 10.5794 52.6103 9.78963 49.2811 8.93571C49.4084 8.26634 48.7581 6.52062 48.5415 5.55676Z" fill="#FF695C"/>
<ellipse cx="33.5" cy="56.4559" rx="29.8596" ry="18.882" transform="rotate(13.7917 33.5 56.4559)" fill="#FD968D"/>
<path d="M7.12299 51.3954C9.98523 44.9955 17.9068 42.7664 24.3486 43.0194C27.2166 43.1323 36.1822 43.973 39.8124 46.3749C43.9135 47.7664 50.1689 52.107 51.7558 48.3456C52.4102 46.7941 52.2567 46.2251 52.6357 44.7001C57.9901 48.4892 62.7687 54.5319 62.5624 61.3817C62.4897 63.7954 61.8816 65.0526 61.0068 67.1718C58.0137 70.8437 51.3256 77.9999 32.4999 75.4999C18.4188 73.63 10.0308 65.4951 7.04486 60.9032C7.02985 60.9352 7.01503 60.9675 6.99994 60.9999C6.37356 59.7307 5.43015 58.2567 4.99994 56.9882C6.13048 56.2196 6.48043 52.8323 7.12299 51.3954ZM35.4013 50.4853C31.5453 49.9444 27.0545 49.2613 23.2128 50.0204C21.4067 50.292 19.709 50.7597 18.1894 51.3036C11.7418 53.8495 5.27158 59.9743 25.9999 66.4999C47.5999 73.2999 51.8833 67.675 51.3251 64.0126C50.3885 59.1345 46.3414 54.3956 35.4013 50.4853Z" fill="#FF695C"/>
<path d="M35.5 50C25.1 46.8 15.8334 51.6667 12.5 54.5C11.6667 55 10.8481 56.5442 11.5 58.5C12 60 12.5 61.5 19 65C25.5 68.5 38.5 71.5 46.5 70C52.9 68.8 52.1667 63.5 51 61C50.1667 58.6667 45.9 53.2 35.5 50Z" fill="#4F270B"/>
<path d="M47.8613 28.2168C48.1789 26.4582 50.4675 25.9669 51.4785 27.4404L51.876 28.0195L53.5781 27.5938C55.3927 27.1404 56.7812 29.2037 55.6777 30.7139L54.6992 32.0547L55.4473 33.3018C56.4986 35.054 54.5548 37.0692 52.7656 36.082L51.6973 35.4922L50.8896 36.498C49.6434 38.0497 47.1428 37.0272 47.3408 35.0469L47.4824 33.6309L46.251 33.1992C44.3116 32.5194 44.536 29.7078 46.5586 29.3438L47.6953 29.1387L47.8613 28.2168Z" fill="#2E8641" stroke="#4F270B" stroke-width="2"/>
<circle cx="51" cy="31.5" r="1.5" fill="#3CBF58"/>
</svg>
