<svg width="74" height="94" viewBox="0 0 74 94" fill="none" xmlns="http://www.w3.org/2000/svg">
<path d="M64.1189 14.1747C62.8392 8.89574 62.2879 0.345386 55.1703 0.0043795C55.1028 0.00114179 55.0321 0.00567618 54.9655 0.0171784C50.1412 0.849481 46.7533 3.00658 43.1117 6.24308C42.259 7.00101 40.2857 9.02308 39.4309 9.52302L39.4162 9.53161C33.5422 12.967 31.0752 14.4099 28.1037 20.5743C28.0104 20.7678 27.8573 20.9303 27.668 21.0319C21.1897 24.5093 14.9754 28.6233 12.8371 35.9599C11.401 40.8879 10.5315 41.0273 7.80149 45.0875C4.90924 49.3892 5.50911 56.5285 7.99556 60.8729C8.76522 62.3457 9.95354 63.9379 10.8785 65.2697C10.9144 65.3214 10.9529 65.3676 10.9979 65.4117C20.6408 74.8444 45.1495 88.6892 66.6114 69.0744C67.5 68 68.0455 66.1398 68.8503 64.4966C69.7935 62.5708 71.1832 60.4306 71.9557 58.4411C74.2807 52.4546 74.1842 45.4322 72.594 39.283C71.6759 35.7329 70.0425 33.169 68.1087 30.1724C67.9872 29.9841 67.9327 29.7604 67.9524 29.5372C68.3937 24.5383 68.2565 19.6522 64.9466 15.5751C64.7072 15.2803 64.2049 14.5287 64.1189 14.1747Z" fill="#4F270B"/>
<path d="M30.9146 19.6764C31.1126 19.3442 31.3158 19.0156 31.5245 18.6902C37.5194 9.32732 51.1911 8.42924 59.9329 14.0938C65.5499 17.463 65.8379 21.7189 65.9022 27.5476C62.6988 25.1499 60.8468 23.8623 57.1936 22.0338C48.4353 18.58 40.1243 17.7112 30.9146 19.6764Z" fill="#69EED3"/>
<path d="M59.933 14.0938C65.5499 17.463 65.8379 21.7189 65.9023 27.5476C62.6988 25.1499 60.8469 23.8623 57.1937 22.0338C57.6573 21.4832 58.1282 21.2392 58.6456 20.779C60.812 18.8529 59.7403 16.6765 59.9163 14.3014L59.933 14.0938Z" fill="#0FD2AB"/>
<path d="M42.0729 12.61C43.1044 12.5145 44.8036 12.1313 45.3884 13.0972C44.6737 14.465 40.8171 15.4235 39.3666 15.8203C38.4795 16.1424 37.1793 16.5589 36.4327 15.873L36.5852 15.2703C38.0069 13.5109 39.9916 13.1523 42.0729 12.61Z" fill="#D6F8F1"/>
<path d="M14.3846 37.6816C15.2715 35.4818 16.1182 33.5733 17.4472 31.5894C26.5733 17.9651 48.6443 18.4773 61.0184 26.9705C61.6604 30.3169 63.5823 34.0672 61.3519 37.3188C59.5955 39.8797 57.668 39.9213 55.5981 40.8556C54.64 40.2429 51.8712 38.9277 50.7828 38.4937C42.3982 35.1508 31.8039 33.1898 22.8445 34.8284C19.9848 35.3514 17.0365 36.5862 14.3846 37.6816Z" fill="#69EED3"/>
<path d="M32.0623 24.6855C33.9201 24.5017 34.8298 24.3952 36.5448 25.1697C37.2742 26.8896 27.4878 29.6024 25.8829 30.3113C24.8733 30.7345 22.6316 31.9171 21.9982 30.6557C22.6365 27.3923 29.1726 25.2759 32.0623 24.6855Z" fill="#D6F8F1"/>
<path d="M61.0183 26.9705C71.8601 34.2257 74.0714 48.0037 68.8233 59.4191C68.2973 53.1598 64.808 48.112 60.0907 44.1276C58.6672 42.9385 57.1664 41.8455 55.598 40.8556C57.668 39.9212 59.5955 39.8796 61.3519 37.3188C63.5822 34.0672 61.6603 30.3169 61.0183 26.9705Z" fill="#0FD2AB"/>
<path d="M43.2409 8.69346C46.3505 6.03758 52.9185 0.347194 57.2111 2.46107C59.0874 4.26955 59.8354 5.73055 60.5826 8.21839C61.0077 9.50415 61.2059 10.7104 61.4577 12.0359C58.4094 10.5793 56.6103 9.78956 53.2811 8.93565C50.7277 8.36226 48.9796 8.3167 46.3774 8.31089C45.4501 8.31879 44.1845 8.55099 43.2409 8.69346Z" fill="#69EED3"/>
<path d="M43.2409 8.69346C46.3505 6.03758 52.9185 0.347194 57.2111 2.46107C56.0287 4.9273 49.4596 5.9216 47.3536 7.93367C47.144 8.13402 46.6622 8.24163 46.3774 8.31089C45.4501 8.31879 44.1845 8.55099 43.2409 8.69346Z" fill="#D6F8F1"/>
<path d="M52.5415 5.55676C54.3788 5.87379 55.4326 6.05693 57.1548 6.77303C58.1687 7.19464 59.689 8.26355 60.5826 8.21846C61.0077 9.50421 61.206 10.7105 61.4577 12.036C58.4095 10.5794 56.6103 9.78963 53.2811 8.93571C53.4084 8.26634 52.7581 6.52062 52.5415 5.55676Z" fill="#0FD2AB"/>
<ellipse cx="37.5" cy="56.4559" rx="29.8596" ry="18.882" transform="rotate(13.7917 37.5 56.4559)" fill="#69EED3"/>
<path d="M11.123 51.3954C13.9853 44.9955 21.9068 42.7664 28.3486 43.0194C31.2167 43.1323 40.1823 43.973 43.8125 46.3749C47.9135 47.7664 54.1689 52.107 55.7558 48.3456C56.4103 46.7941 56.2568 46.2251 56.6357 44.7001C61.9902 48.4892 66.7687 54.5319 66.5625 61.3817C66.4897 63.7954 65.8816 65.0526 65.0068 67.1718C62.0138 70.8437 55.3256 77.9999 36.5 75.4999C22.4188 73.63 14.0309 65.4951 11.0449 60.9032C11.0299 60.9352 11.0151 60.9675 11 60.9999C10.3736 59.7306 9.43018 58.2567 8.99997 56.9882C10.1305 56.2196 10.4805 52.8323 11.123 51.3954ZM39.4013 50.4852C35.5453 49.9443 31.0545 49.2613 27.2129 50.0204C25.4067 50.292 23.709 50.7597 22.1894 51.3036C15.7418 53.8495 9.27161 59.9743 30 66.4999C51.6 73.2999 55.8833 67.675 55.3252 64.0126C54.3886 59.1345 50.3414 54.3956 39.4013 50.4852Z" fill="#0FD2AB"/>
<path d="M39.5 50C29.1 46.8 19.8334 51.6667 16.5 54.5C15.6667 55 14.8481 56.5442 15.5 58.5C16 60 16.5 61.5 23 65C29.5 68.5 42.5 71.5 50.5 70C56.9 68.8 56.1667 63.5 55 61C54.1667 58.6667 49.9 53.2 39.5 50Z" fill="#4F270B"/>
<path d="M49.8613 27.2168C50.1789 25.4582 52.4675 24.9669 53.4785 26.4404L53.876 27.0195L55.5781 26.5937C57.3927 26.1403 58.7812 28.2037 57.6777 29.7139L56.6992 31.0547L57.4473 32.3017C58.4986 34.054 56.5548 36.0692 54.7656 35.082L53.6973 34.4922L52.8896 35.498C51.6434 37.0497 49.1428 36.0272 49.3408 34.0469L49.4824 32.6308L48.251 32.1992C46.3116 31.5194 46.536 28.7078 48.5586 28.3437L49.6953 28.1387L49.8613 27.2168Z" fill="#E1420D" stroke="#4F270B" stroke-width="2"/>
<circle cx="53" cy="30.5" r="1.5" fill="#EB5B2A"/>
<path d="M23.1674 43.0121C25.9205 42.8096 28.2575 45.1875 28.9294 47.7333C31.4325 47.0808 36.9903 47.2025 39.568 47.7612C40.2852 46.0229 42.0327 43.9454 43.9478 43.7385C48.6916 43.2259 49.937 46.7447 50.5442 50.6786C50.7847 52.2362 51.327 52.9837 52.461 54.1243C54.6617 56.3378 56.5872 58.6054 56.8292 61.8899C60.2932 61.949 64.4048 63.2101 66.9237 65.7208C69.9139 68.7013 71.9714 72.1902 71.9994 76.5591C72.0128 78.6496 71.8018 80.8496 70.2826 82.4132C70.1151 82.4446 69.9469 82.4726 69.7781 82.4963C68.5323 82.6686 67.9705 82.0399 67.0317 81.3187C66.9403 82.5854 66.2846 85.0772 65.6652 86.2014C62.6993 91.5829 60.5327 85.1095 59.8426 82.6126C57.2085 89.1717 53.0036 92.6061 45.9521 93.2806C41.0471 93.7498 40.0765 92.3872 42.5125 87.9161C40.4378 88.5142 37.3447 89.4873 37.3316 86.0877C37.3167 83.271 39.6313 78.8176 41.1444 76.4166C40.4781 76.5294 39.1784 76.543 38.4588 76.5854C34.2445 76.8331 29.2118 76.5302 25.2374 74.9428C25.558 75.6929 26.0318 76.459 26.3715 77.1801C27.4039 79.3725 28.374 82.7059 27.5393 85.0942C27.0125 86.6019 26.3123 87.0888 25.0083 87.7566C22.8784 86.8912 21.6708 85.5481 19.9825 84.6708C21.0586 85.8824 22.3944 88.146 22.5246 89.8055C22.6133 91.5863 20.9361 92.3092 19.4689 92.3075C14.1607 92.299 8.52349 89.489 6.61722 84.2127C6.22764 83.1344 5.85222 82.4242 5.81638 81.2619C4.8845 82.1281 4.19014 83.618 2.73496 83.8572C2.33567 83.9234 1.99253 83.8046 1.67197 83.5543C0.676818 82.778 0.228634 80.5187 0.0833282 79.3182C-0.381106 75.4792 1.14381 70.8736 3.46325 67.8747C5.27011 65.5386 8.0177 64.2847 10.7907 63.5837C11.4444 63.4184 12.2264 63.1796 12.8971 63.1072C12.8192 59.5789 13.8781 56.5992 16.1696 53.9384C16.6671 53.3607 17.1589 52.6999 17.7579 52.2292C17.7135 48.3833 19.0809 44.0754 23.1674 43.0121Z" fill="#4E280A"/>
<path d="M29.6324 49.794C31.994 49.5039 34.3306 49.4122 36.7003 49.6613C37.4736 49.7426 38.2267 49.8638 39.006 49.8771C38.9869 51.3385 38.9493 52.0936 39.3976 53.5058C40.8834 58.1869 44.3195 59.71 48.379 56.5979C48.8124 56.0214 49.4227 55.1676 49.9013 54.6569C53.0152 57.9252 57.1891 63.7745 52.9572 67.9502C51.364 69.5223 49.4253 70.0819 47.4214 70.8929C46.5405 71.2592 45.2265 72.3523 44.3205 72.8557C42.0167 74.1359 37.669 74.4995 35.0598 74.4041C29.8008 74.2117 24.2608 73.1167 20.1747 69.5459C19.737 69.2651 19.3222 68.9494 18.9343 68.6016C17.2345 67.0839 15.4709 64.2259 15.3611 61.8952C15.2318 59.1511 16.8173 56.4276 18.5435 54.4519C20.2215 56.1998 22.6291 58.2579 25.2682 57.3865C28.1836 56.4239 29.1516 52.49 29.6324 49.794Z" fill="#EB5B2A"/>
<path d="M49.9013 54.6569C53.0152 57.9252 57.1891 63.7746 52.9572 67.9503C51.364 69.5223 49.4253 70.0819 47.4214 70.8929C46.5406 71.2593 45.2265 72.3523 44.3205 72.8558C42.0167 74.1359 37.6691 74.4996 35.0598 74.4041C29.8009 74.2117 24.2608 73.1167 20.1747 69.5459C21.7818 69.0082 24.7212 71.0103 26.506 71.1072C32.3952 71.4267 38.0348 71.5372 43.6748 69.5127C48.5437 67.7651 51.8021 63.7589 49.891 58.4415C49.6245 57.6945 49.104 56.9309 48.379 56.598C48.8125 56.0215 49.4227 55.1676 49.9013 54.6569Z" fill="#E1420D"/>
<path d="M28.2755 59.3309C29.4782 59.7248 30.0275 60.883 30.764 61.8209C33.8923 65.8043 36.6869 59.9678 38.6575 60.3707C38.8564 60.4114 38.9858 60.5298 39.0792 60.709C39.2682 61.0714 39.1238 62.0996 39.0105 62.4945C35.0362 67.5079 26.0876 64.9986 28.2755 59.3309Z" fill="#4E280A"/>
<path d="M43.2315 91.2733C44.1639 89.7979 49.3637 82.7992 47.8487 81.5521C45.8584 81.0668 41.7394 87.0049 39.8801 86.008C38.8333 84.9152 41.6637 79.8213 42.3182 78.7981C44.0945 76.022 46.7727 73.0873 50.0679 72.2814C51.2529 71.9916 53.7165 71.9834 54.7327 72.6591C59.0568 74.926 59.2675 79.4564 57.1219 83.4271C55.0437 87.2721 52.1488 89.6867 47.9681 90.7379C46.0937 91.1401 44.8522 90.9933 43.2315 91.2733Z" fill="#EB5B2A"/>
<path d="M54.7328 72.659C59.0569 74.9259 59.2675 79.4564 57.1219 83.427C55.0437 87.2721 52.1488 89.6867 47.9681 90.7379C48.1457 89.4907 50.1317 88.476 51.2014 87.5436C51.983 86.8606 52.7038 86.1089 53.3554 85.297C55.5853 82.4938 56.573 79.2554 55.7494 75.7096C55.5373 74.7968 54.8019 73.5787 54.7328 72.659Z" fill="#E1420D"/>
<path d="M20.6731 90.0711C16.9616 89.8259 14.1562 89.7241 11.1739 87.049C6.43825 82.8018 6.6108 73.2973 13.094 70.8977C16.2141 69.7428 18.9012 71.8216 21.0809 73.895C23.2609 75.7957 25.4189 79.2647 25.6181 82.2257C25.9338 86.9158 22.0949 83.7393 20.5496 82.1807C20.302 81.9356 20.0664 81.6776 19.8434 81.4095C19.43 80.9259 18.7848 80.0826 18.2226 79.8841C16.7388 79.3581 16.7421 80.5518 16.9315 81.5555C17.5136 84.6412 19.2324 87.3875 20.6731 90.0711Z" fill="#EB5B2A"/>
<path d="M21.0809 73.895C23.2608 75.7957 25.4189 79.2648 25.618 82.2257C25.9337 86.9158 22.0948 83.7393 20.5495 82.1808C20.302 81.9356 20.0664 81.6777 19.8433 81.4096C21.1862 79.4769 21.1235 77.9183 21.0361 75.6545C21.0155 75.1225 20.9936 74.4089 21.0809 73.895Z" fill="#E1420D"/>
<path d="M56.0064 67.8437C64.0343 66.6108 67.2601 81.86 63.4486 85.4675C62.5019 83.998 61.7934 82.2367 61.3095 80.5687C60.3843 77.3804 59.943 73.9336 57.288 71.6546C56.2929 70.8003 55.2044 70.3593 54.0958 69.6263C54.6726 68.9994 55.3302 68.358 56.0064 67.8437Z" fill="#E1420D"/>
<path d="M10.5342 65.9202C11.673 65.5971 12.058 65.4601 13.2112 65.4228C14.23 66.0181 14.8965 67.0563 15.562 68.0417C12.5597 68.8772 8.88477 69.716 7.41287 72.7771C5.71458 76.3097 5.30272 78.6191 2.35882 81.4587C2.33328 80.5272 2.22314 77.9751 2.38836 77.2098C2.51029 71.8808 5.61478 67.7023 10.5342 65.9202Z" fill="#E1420D"/>
<path d="M10.5343 65.9202C10.126 66.8828 7.9113 69.6168 7.1802 70.6582C6.46167 71.6818 3.42174 77.1453 2.8499 77.4414C2.62754 77.4338 2.53226 77.4304 2.38837 77.2098C2.5103 71.8808 5.61478 67.7022 10.5343 65.9202Z" fill="#EB5B2A"/>
<path d="M56.5917 64.4577C57.1001 64.4533 58.8494 64.4057 59.2434 64.4691C62.2491 64.9527 64.9354 66.4623 66.8602 68.7963C69.6335 72.1592 69.933 75.775 69.5425 79.9596C68.0565 80.2692 66.156 74.1138 65.7812 73.0795C65.5236 72.3558 65.2305 71.6457 64.903 70.9518C63.8588 68.7545 61.8697 67.2227 59.6607 66.3202C58.8379 65.984 57.8684 65.7957 57.0971 65.3111C56.6927 65.0572 56.683 64.9136 56.5917 64.4577Z" fill="#E1420D"/>
<path d="M44.8936 46.0132C45.9378 45.8784 46.8942 46.6214 47.037 47.6782C47.1798 48.7351 46.4557 49.7112 45.4141 49.8658C44.3586 50.0226 43.3796 49.2767 43.2349 48.2057C43.0901 47.1347 43.8353 46.1498 44.8936 46.0132Z" fill="white"/>
<path d="M23.2619 45.5484C23.6688 45.4567 24.0942 45.5031 24.4727 45.6803C25.2157 46.0284 25.6554 46.8193 25.5643 47.6436C25.4733 48.4678 24.8719 49.1405 24.0714 49.3136C23.3333 49.4731 22.572 49.1752 22.1313 48.5545C21.6906 47.9338 21.6538 47.1077 22.0376 46.4493C22.3052 45.9903 22.7484 45.6642 23.2619 45.5484Z" fill="white"/>
</svg>
