<svg width="70" height="82" viewBox="0 0 70 82" fill="none" xmlns="http://www.w3.org/2000/svg">
<path d="M60.1189 14.1747C58.8392 8.89574 58.2879 0.345386 51.1703 0.0043795C51.1028 0.00114179 51.0321 0.00567618 50.9655 0.0171784C46.1412 0.849481 42.7533 3.00658 39.1117 6.24308C38.259 7.00101 36.2857 9.02308 35.4309 9.52302L35.4162 9.53161C29.5422 12.967 27.0752 14.4099 24.1037 20.5743C24.0104 20.7678 23.8573 20.9303 23.668 21.0319C17.1897 24.5093 10.9754 28.6233 8.83714 35.9599C7.40101 40.8879 6.53152 41.0273 3.80149 45.0875C0.909235 49.3892 1.50911 56.5285 3.99556 60.8729C4.76522 62.3457 5.95354 63.9379 6.87846 65.2697C6.91436 65.3214 6.95288 65.3676 6.99787 65.4117C16.6408 74.8444 41.1495 88.6892 62.6114 69.0744C63.5 68 64.0455 66.1398 64.8503 64.4966C65.7935 62.5708 67.1832 60.4306 67.9557 58.4411C70.2807 52.4546 70.1842 45.4322 68.594 39.283C67.6759 35.7329 66.0425 33.169 64.1087 30.1724C63.9872 29.9841 63.9327 29.7604 63.9524 29.5372C64.3937 24.5383 64.2565 19.6522 60.9466 15.5751C60.7072 15.2803 60.2049 14.5287 60.1189 14.1747Z" fill="#4F270B"/>
<path d="M26.9146 19.6764C27.1126 19.3442 27.3158 19.0156 27.5245 18.6902C33.5194 9.32732 47.1911 8.42924 55.9329 14.0938C61.5499 17.463 61.8379 21.7189 61.9022 27.5476C58.6988 25.1499 56.8468 23.8623 53.1936 22.0338C44.4353 18.58 36.1243 17.7112 26.9146 19.6764Z" fill="#69EED3"/>
<path d="M55.933 14.0938C61.5499 17.463 61.8379 21.7189 61.9023 27.5476C58.6988 25.1499 56.8469 23.8623 53.1937 22.0338C53.6573 21.4832 54.1282 21.2392 54.6456 20.779C56.812 18.8529 55.7403 16.6765 55.9163 14.3014L55.933 14.0938Z" fill="#0FD2AB"/>
<path d="M38.0729 12.61C39.1044 12.5145 40.8036 12.1313 41.3884 13.0972C40.6737 14.465 36.8171 15.4235 35.3666 15.8203C34.4795 16.1424 33.1793 16.5589 32.4327 15.873L32.5852 15.2703C34.0069 13.5109 35.9916 13.1523 38.0729 12.61Z" fill="#D6F8F1"/>
<path d="M10.3846 37.6816C11.2715 35.4818 12.1182 33.5733 13.4472 31.5894C22.5733 17.9651 44.6443 18.4773 57.0184 26.9705C57.6604 30.3169 59.5823 34.0672 57.3519 37.3188C55.5955 39.8797 53.668 39.9213 51.5981 40.8556C50.64 40.2429 47.8712 38.9277 46.7828 38.4937C38.3982 35.1508 27.8039 33.1898 18.8445 34.8284C15.9848 35.3514 13.0365 36.5862 10.3846 37.6816Z" fill="#69EED3"/>
<path d="M28.0623 24.6855C29.9201 24.5017 30.8298 24.3952 32.5448 25.1697C33.2742 26.8896 23.4878 29.6024 21.8829 30.3113C20.8733 30.7345 18.6316 31.9171 17.9982 30.6557C18.6365 27.3923 25.1726 25.2759 28.0623 24.6855Z" fill="#D6F8F1"/>
<path d="M57.0183 26.9705C67.8601 34.2257 70.0714 48.0037 64.8233 59.4191C64.2973 53.1598 60.808 48.112 56.0907 44.1276C54.6672 42.9385 53.1664 41.8455 51.598 40.8556C53.668 39.9212 55.5955 39.8796 57.3519 37.3188C59.5822 34.0672 57.6603 30.3169 57.0183 26.9705Z" fill="#0FD2AB"/>
<path d="M39.2409 8.69346C42.3505 6.03758 48.9185 0.347194 53.2111 2.46107C55.0874 4.26955 55.8354 5.73055 56.5826 8.21839C57.0077 9.50415 57.2059 10.7104 57.4577 12.0359C54.4094 10.5793 52.6103 9.78956 49.2811 8.93565C46.7277 8.36226 44.9796 8.3167 42.3774 8.31089C41.4501 8.31879 40.1845 8.55099 39.2409 8.69346Z" fill="#69EED3"/>
<path d="M39.2409 8.69346C42.3505 6.03758 48.9185 0.347194 53.2111 2.46107C52.0287 4.9273 45.4596 5.9216 43.3536 7.93367C43.144 8.13402 42.6622 8.24163 42.3774 8.31089C41.4501 8.31879 40.1845 8.55099 39.2409 8.69346Z" fill="#D6F8F1"/>
<path d="M48.5415 5.55676C50.3788 5.87379 51.4326 6.05693 53.1548 6.77303C54.1687 7.19464 55.689 8.26355 56.5826 8.21846C57.0077 9.50421 57.206 10.7105 57.4577 12.036C54.4095 10.5794 52.6103 9.78963 49.2811 8.93571C49.4084 8.26634 48.7581 6.52062 48.5415 5.55676Z" fill="#0FD2AB"/>
<ellipse cx="33.5" cy="56.4559" rx="29.8596" ry="18.882" transform="rotate(13.7917 33.5 56.4559)" fill="#69EED3"/>
<path d="M7.12302 51.395C9.9853 44.9952 17.9069 42.766 24.3486 43.019C27.2174 43.1319 36.187 43.9731 39.8154 46.3764C43.9163 47.769 50.169 52.1057 51.7558 48.3462C52.4103 46.7945 52.2566 46.225 52.6357 44.6997C57.9902 48.4889 62.7689 54.5324 62.5625 61.3823C62.4897 63.7958 61.8816 65.0532 61.0068 67.1723C58.0136 70.8443 51.325 78.0004 32.5 75.5005C18.4185 73.6305 10.0307 65.4946 7.04489 60.9028C7.02988 60.9348 7.01506 60.9671 6.99997 60.9995C6.37362 59.7304 5.43017 58.2571 4.99997 56.9887C6.1307 56.2204 6.48037 52.8318 7.12302 51.395ZM35.4023 50.4858C31.5461 49.9449 27.0548 49.2608 23.2129 50.02C21.4 50.2926 19.6967 50.7635 18.1728 51.31C11.7307 53.8599 5.2895 59.9795 26 66.4995C47.5994 73.2993 51.883 67.6756 51.3252 64.0132C50.3887 59.1351 46.3418 54.3962 35.4023 50.4858Z" fill="#0FD2AB"/>
<path d="M35.5 50C25.1 46.8 15.8334 51.6667 12.5 54.5C11.6667 55 10.8481 56.5442 11.5 58.5C12 60 12.5 61.5 19 65C25.5 68.5 38.5 71.5 46.5 70C52.9 68.8 52.1667 63.5 51 61C50.1667 58.6667 45.9 53.2 35.5 50Z" fill="#4F270B"/>
<path d="M45.8613 27.2168C46.1789 25.4582 48.4675 24.9669 49.4785 26.4404L49.876 27.0195L51.5781 26.5938C53.3927 26.1404 54.7812 28.2037 53.6777 29.7139L52.6992 31.0547L53.4473 32.3018C54.4986 34.054 52.5548 36.0692 50.7656 35.082L49.6973 34.4922L48.8896 35.498C47.6434 37.0497 45.1428 36.0272 45.3408 34.0469L45.4824 32.6309L44.251 32.1992C42.3116 31.5194 42.536 28.7078 44.5586 28.3438L45.6953 28.1387L45.8613 27.2168Z" fill="#E1420D" stroke="#4F270B" stroke-width="2"/>
<circle cx="49" cy="30.5" r="1.5" fill="#EB5B2A"/>
</svg>
