<svg width="76" height="85" viewBox="0 0 76 85" fill="none" xmlns="http://www.w3.org/2000/svg">
<path d="M65.9307 20.3661C65.8331 16.2201 66.8085 9.7555 61.5727 8.33038C61.5075 8.31261 61.4376 8.30209 61.37 8.29924C57.6421 8.14217 54.7656 9.20225 51.5255 11.0242C50.7652 11.4518 48.9621 12.6417 48.2421 12.8762L48.2298 12.8802C43.3071 14.4838 41.2255 15.1618 38.0302 19.2298C37.8975 19.3988 37.7141 19.5242 37.5076 19.5834C32.1279 21.1257 26.8523 23.1934 24.0746 28.3033C22.2003 31.7516 21.528 31.7144 18.8282 34.3039C15.9678 37.0475 15.2551 42.4789 16.4063 46.129C16.7398 47.3472 17.3632 48.7208 17.8367 49.8621C17.8608 49.9203 17.8887 49.9738 17.9233 50.0264C23.6044 58.6437 39.655 72.9449 58.8657 61.788C59.7043 61.1298 60.4143 59.8287 61.2828 58.7319C62.3006 57.4464 63.6869 56.0734 64.5876 54.7127C67.2981 50.6181 68.3679 45.3558 68.1797 40.5031C68.0722 37.7294 67.2837 35.564 66.3388 33.0435C66.2602 32.8337 66.2545 32.6034 66.3208 32.3893C67.4489 28.7521 68.1184 25.1059 66.3213 21.5469C66.1904 21.2878 65.9374 20.6445 65.9307 20.3661Z" fill="#4F270B"/>
<path d="M40.2284 19.0772C40.4304 18.8612 40.6356 18.6487 40.8445 18.4396C46.8458 12.4192 57.2063 13.9714 62.8164 19.625C66.465 23.0555 65.9881 26.282 65.0884 30.6472C63.085 28.3349 61.9107 27.0718 59.4787 25.1117C53.4967 21.1071 47.4287 19.1066 40.2284 19.0772Z" fill="#FD968D"/>
<path d="M62.8164 19.625C66.465 23.0555 65.9881 26.282 65.0885 30.6472C63.085 28.3349 61.9107 27.0718 59.4787 25.1117C59.9146 24.7757 60.3061 24.6699 60.7675 24.4102C62.6992 23.3235 62.2525 21.5232 62.7701 19.7773L62.8164 19.625Z" fill="#FF695C"/>
<path d="M49.7141 15.6122C50.5003 15.7086 51.8322 15.6986 52.112 16.5153C51.3556 17.421 48.3184 17.51 47.1702 17.5706C46.455 17.667 45.4159 17.7668 44.9696 17.1329L45.1816 16.7075C46.5299 15.6241 48.0709 15.6789 49.7141 15.6122Z" fill="#FFD9D5"/>
<path d="M24.9508 29.8413C25.9712 28.342 26.9141 27.0538 28.2296 25.7877C37.2633 17.0926 53.6697 21.0643 61.5336 29.4218C61.469 32.0264 62.2951 35.1409 60.1 37.2075C58.3714 38.8352 56.9245 38.5528 55.2261 38.9143C54.61 38.3008 52.7552 36.8679 52.0126 36.3667C46.2918 32.5057 38.6955 29.3179 31.7354 29.0853C29.5138 29.011 27.1103 29.4541 24.9508 29.8413Z" fill="#FD968D"/>
<path d="M40.2714 23.0062C41.6893 23.171 42.3862 23.2393 43.5416 24.0968C43.8069 25.5004 36.0542 25.9359 34.7399 26.2045C33.9167 26.3566 32.0496 26.8756 31.7815 25.8302C32.789 23.4958 38.0165 22.9774 40.2714 23.0062Z" fill="#FFD9D5"/>
<path d="M61.5334 29.4218C68.4537 36.6054 67.8654 47.2587 62.0882 54.934C62.7131 50.172 60.9269 45.8333 58.0505 42.0894C57.1802 40.9696 56.2367 39.9089 55.2259 38.9143C56.9244 38.5528 58.3712 38.8352 60.0998 37.2075C62.2949 35.1409 61.4688 32.0264 61.5334 29.4218Z" fill="#FF695C"/>
<path d="M51.2236 12.876C53.9787 11.3973 59.8111 8.21397 62.6744 10.4913C63.7822 12.1476 64.1034 13.3607 64.2572 15.3409C64.3657 16.3707 64.3176 17.3041 64.2902 18.3354C62.2496 16.7515 61.0339 15.8689 58.6854 14.6895C56.871 13.8459 55.5724 13.5276 53.6292 13.1002C52.935 12.9553 51.9518 12.923 51.2236 12.876Z" fill="#FD968D"/>
<path d="M51.2236 12.876C53.9787 11.3973 59.8111 8.21397 62.6744 10.4913C61.39 12.1416 56.3204 11.8163 54.4198 12.9771C54.2306 13.0927 53.8531 13.0947 53.6292 13.1002C52.935 12.9553 51.9518 12.923 51.2236 12.876Z" fill="#FFD9D5"/>
<path d="M58.6823 12.0448C60.0034 12.5805 60.7609 12.8886 61.9312 13.7037C62.6201 14.1836 63.5821 15.2294 64.2571 15.341C64.3656 16.3707 64.3176 17.3042 64.2901 18.3354C62.2496 16.7515 61.0338 15.8689 58.6854 14.6896C58.8894 14.2102 58.6874 12.8002 58.6823 12.0448Z" fill="#FF695C"/>
<ellipse cx="39.1679" cy="47.6267" rx="22.8309" ry="14.4373" transform="rotate(26.0705 39.1679 47.6267)" fill="#FD968D"/>
<path d="M20.2847 39.5568C23.4638 35.2409 29.7438 34.8634 34.5153 36.0998C36.6401 36.6506 43.2035 38.7371 45.5242 41.1224C48.3619 42.8293 52.329 47.0874 54.126 44.5356C54.8671 43.483 54.8451 43.0331 55.3762 41.9554C58.7604 45.657 61.3477 50.9485 60.0798 56.0326C59.633 57.824 58.9742 58.6642 57.9761 60.1051C55.1429 62.3618 48.9821 66.6211 35.3236 61.6921C25.1073 58.0052 20.1636 50.5632 18.6795 46.6471C18.6631 46.6686 18.6469 46.6906 18.6304 46.7124C18.3688 45.6623 17.9035 44.4077 17.7884 43.3899C18.758 42.9995 19.571 40.5257 20.2847 39.5568ZM41.561 43.4759C38.7676 42.4446 35.523 41.2028 32.5287 41.1453C31.1293 41.0541 29.7794 41.1294 28.5515 41.2901C23.3243 42.1481 17.52 45.6729 31.9311 53.9108C46.9631 62.5035 51.0782 58.9981 51.2567 56.1711C51.3503 52.3745 49.0975 48.176 41.561 43.4759Z" fill="#FF695C"/>
<path d="M41.712 43.1286C34.4623 39.0467 26.7476 41.1758 23.7965 42.7506C23.0926 42.9887 22.23 44.0093 22.399 45.5765C22.5286 46.7785 22.6583 47.9805 26.9454 51.6523C31.2325 55.3242 40.4573 59.6795 46.6781 59.8597C51.6548 60.0038 51.9688 55.9248 51.5036 53.8673C51.2605 51.9885 48.9617 47.2105 41.712 43.1286Z" fill="#4F270B"/>
<path d="M23.1674 34.0121C25.9205 33.8096 28.2575 36.1875 28.9294 38.7333C31.4325 38.0809 36.9903 38.2025 39.568 38.7612C40.2852 37.023 42.0327 34.9454 43.9478 34.7385C48.6916 34.2259 49.937 37.7447 50.5442 41.6786C50.7847 43.2362 51.327 43.9837 52.461 45.1243C54.6617 47.3378 56.5872 49.6054 56.8292 52.8899C60.2932 52.949 64.4048 54.2101 66.9237 56.7208C69.9139 59.7014 71.9714 63.1902 71.9994 67.5591C72.0128 69.6496 71.8018 71.8496 70.2826 73.4132C70.1151 73.4446 69.9469 73.4726 69.7781 73.4963C68.5323 73.6686 67.9705 73.0399 67.0317 72.3187C66.9403 73.5854 66.2846 76.0773 65.6652 77.2014C62.6993 82.583 60.5327 76.1095 59.8426 73.6126C57.2085 80.1717 53.0036 83.6061 45.9521 84.2806C41.0471 84.7498 40.0765 83.3873 42.5125 78.9161C40.4378 79.5142 37.3447 80.4874 37.3316 77.0877C37.3167 74.271 39.6313 69.8176 41.1444 67.4166C40.4781 67.5294 39.1784 67.543 38.4588 67.5854C34.2445 67.8331 29.2118 67.5303 25.2374 65.9429C25.558 66.6929 26.0318 67.459 26.3715 68.1801C27.4039 70.3725 28.374 73.7059 27.5393 76.0942C27.0125 77.6019 26.3123 78.0889 25.0083 78.7566C22.8784 77.8912 21.6708 76.5481 19.9825 75.6709C21.0586 76.8824 22.3944 79.146 22.5246 80.8055C22.6133 82.5863 20.9361 83.3092 19.4689 83.3075C14.1607 83.299 8.52349 80.489 6.61722 75.2127C6.22764 74.1344 5.85222 73.4242 5.81638 72.2619C4.8845 73.1281 4.19014 74.618 2.73496 74.8572C2.33567 74.9234 1.99253 74.8046 1.67197 74.5543C0.676818 73.778 0.228634 71.5187 0.0833282 70.3182C-0.381106 66.4792 1.14381 61.8736 3.46325 58.8747C5.27011 56.5386 8.0177 55.2847 10.7907 54.5837C11.4444 54.4184 12.2264 54.1796 12.8971 54.1072C12.8192 50.579 13.8781 47.5992 16.1696 44.9384C16.6671 44.3607 17.1589 43.6999 17.7579 43.2292C17.7135 39.3833 19.0809 35.0754 23.1674 34.0121Z" fill="#4E280A"/>
<path d="M29.6324 40.794C31.994 40.5039 34.3306 40.4122 36.7003 40.6613C37.4736 40.7426 38.2267 40.8638 39.006 40.8772C38.9869 42.3385 38.9493 43.0937 39.3976 44.5059C40.8834 49.1869 44.3195 50.71 48.379 47.5979C48.8124 47.0214 49.4227 46.1676 49.9013 45.6569C53.0152 48.9252 57.1891 54.7746 52.9572 58.9502C51.364 60.5223 49.4253 61.0819 47.4214 61.8929C46.5405 62.2593 45.2265 63.3523 44.3205 63.8557C42.0167 65.1359 37.669 65.4995 35.0598 65.4041C29.8008 65.2117 24.2608 64.1167 20.1747 60.5459C19.737 60.2651 19.3222 59.9494 18.9343 59.6017C17.2345 58.0839 15.4709 55.2259 15.3611 52.8952C15.2318 50.1511 16.8173 47.4276 18.5435 45.4519C20.2215 47.1998 22.6291 49.2579 25.2682 48.3865C28.1836 47.4239 29.1516 43.49 29.6324 40.794Z" fill="#EB5B2A"/>
<path d="M49.9013 45.6569C53.0152 48.9252 57.1891 54.7746 52.9572 58.9503C51.364 60.5223 49.4253 61.0819 47.4214 61.8929C46.5406 62.2593 45.2265 63.3523 44.3205 63.8558C42.0167 65.1359 37.6691 65.4996 35.0598 65.4041C29.8009 65.2117 24.2608 64.1167 20.1747 60.5459C21.7818 60.0083 24.7212 62.0103 26.506 62.1072C32.3952 62.4267 38.0348 62.5372 43.6748 60.5127C48.5437 58.7651 51.8021 54.7589 49.891 49.4415C49.6245 48.6945 49.104 47.9309 48.379 47.598C48.8125 47.0215 49.4227 46.1676 49.9013 45.6569Z" fill="#E1420D"/>
<path d="M28.2755 50.331C29.4782 50.7248 30.0275 51.883 30.764 52.8209C33.8923 56.8043 36.6869 50.9678 38.6575 51.3707C38.8564 51.4114 38.9858 51.5298 39.0792 51.709C39.2682 52.0714 39.1238 53.0996 39.0105 53.4945C35.0362 58.5079 26.0876 55.9986 28.2755 50.331Z" fill="#4E280A"/>
<path d="M43.2315 82.2733C44.1639 80.7979 49.3637 73.7992 47.8487 72.5521C45.8584 72.0668 41.7394 78.0049 39.8801 77.008C38.8333 75.9152 41.6637 70.8213 42.3182 69.7981C44.0945 67.022 46.7727 64.0873 50.0679 63.2814C51.2529 62.9916 53.7165 62.9834 54.7327 63.6591C59.0568 65.926 59.2675 70.4565 57.1219 74.4271C55.0437 78.2721 52.1488 80.6867 47.9681 81.7379C46.0937 82.1401 44.8522 81.9933 43.2315 82.2733Z" fill="#EB5B2A"/>
<path d="M54.7328 63.659C59.0569 65.9259 59.2675 70.4564 57.1219 74.427C55.0437 78.2721 52.1488 80.6867 47.9681 81.7379C48.1457 80.4907 50.1317 79.476 51.2014 78.5436C51.983 77.8606 52.7038 77.1089 53.3554 76.297C55.5853 73.4938 56.573 70.2554 55.7494 66.7096C55.5373 65.7968 54.8019 64.5787 54.7328 63.659Z" fill="#E1420D"/>
<path d="M20.6731 81.0711C16.9616 80.8259 14.1562 80.7241 11.1739 78.049C6.43825 73.8018 6.6108 64.2973 13.094 61.8977C16.2141 60.7428 18.9012 62.8216 21.0809 64.895C23.2609 66.7957 25.4189 70.2647 25.6181 73.2257C25.9338 77.9158 22.0949 74.7393 20.5496 73.1808C20.302 72.9356 20.0664 72.6776 19.8434 72.4095C19.43 71.9259 18.7848 71.0826 18.2226 70.8841C16.7388 70.3581 16.7421 71.5518 16.9315 72.5555C17.5136 75.6412 19.2324 78.3875 20.6731 81.0711Z" fill="#EB5B2A"/>
<path d="M21.0809 64.895C23.2608 66.7957 25.4189 70.2648 25.618 73.2258C25.9337 77.9158 22.0948 74.7393 20.5495 73.1808C20.302 72.9356 20.0664 72.6777 19.8433 72.4096C21.1862 70.4769 21.1235 68.9183 21.0361 66.6545C21.0155 66.1225 20.9936 65.4089 21.0809 64.895Z" fill="#E1420D"/>
<path d="M56.0064 58.8437C64.0343 57.6108 67.2601 72.86 63.4486 76.4675C62.5019 74.9981 61.7934 73.2367 61.3095 71.5687C60.3843 68.3804 59.943 64.9336 57.288 62.6546C56.2929 61.8003 55.2044 61.3593 54.0958 60.6263C54.6726 59.9994 55.3302 59.358 56.0064 58.8437Z" fill="#E1420D"/>
<path d="M10.5342 56.9202C11.673 56.5971 12.058 56.4601 13.2112 56.4228C14.23 57.0181 14.8965 58.0563 15.562 59.0417C12.5597 59.8772 8.88477 60.716 7.41287 63.7771C5.71458 67.3097 5.30272 69.6191 2.35882 72.4587C2.33328 71.5272 2.22314 68.9751 2.38836 68.2098C2.51029 62.8808 5.61478 58.7023 10.5342 56.9202Z" fill="#E1420D"/>
<path d="M10.5343 56.9202C10.126 57.8828 7.9113 60.6168 7.1802 61.6582C6.46167 62.6818 3.42174 68.1454 2.8499 68.4414C2.62754 68.4338 2.53226 68.4304 2.38837 68.2098C2.5103 62.8808 5.61478 58.7022 10.5343 56.9202Z" fill="#EB5B2A"/>
<path d="M56.5917 55.4577C57.1001 55.4533 58.8494 55.4057 59.2434 55.4691C62.2491 55.9527 64.9354 57.4623 66.8602 59.7963C69.6335 63.1592 69.933 66.775 69.5425 70.9596C68.0565 71.2692 66.156 65.1139 65.7812 64.0795C65.5236 63.3558 65.2305 62.6457 64.903 61.9518C63.8588 59.7545 61.8697 58.2227 59.6607 57.3202C58.8379 56.984 57.8684 56.7957 57.0971 56.3111C56.6927 56.0572 56.683 55.9136 56.5917 55.4577Z" fill="#E1420D"/>
<path d="M44.8936 37.0132C45.9378 36.8784 46.8942 37.6214 47.037 38.6782C47.1798 39.7351 46.4557 40.7112 45.4141 40.8659C44.3586 41.0226 43.3796 40.2767 43.2349 39.2058C43.0901 38.1347 43.8353 37.1498 44.8936 37.0132Z" fill="white"/>
<path d="M23.2619 36.5484C23.6688 36.4567 24.0942 36.5031 24.4727 36.6803C25.2157 37.0284 25.6554 37.8193 25.5643 38.6436C25.4733 39.4678 24.8719 40.1405 24.0714 40.3136C23.3333 40.4731 22.572 40.1752 22.1313 39.5545C21.6906 38.9338 21.6538 38.1077 22.0376 37.4493C22.3052 36.9904 22.7484 36.6642 23.2619 36.5484Z" fill="white"/>
</svg>
