<svg width="66" height="73" viewBox="0 0 66 73" fill="none" xmlns="http://www.w3.org/2000/svg">
<path d="M55.9306 20.3661C55.833 16.2201 56.8085 9.7555 51.5727 8.33038C51.5074 8.31261 51.4376 8.30209 51.37 8.29924C47.642 8.14217 44.7655 9.20225 41.5255 11.0242C40.7651 11.4518 38.9621 12.6417 38.2421 12.8762L38.2297 12.8802C33.307 14.4838 31.2254 15.1618 28.0302 19.2298C27.8975 19.3988 27.714 19.5242 27.5075 19.5834C22.1279 21.1257 16.8522 23.1934 14.0746 28.3033C12.2003 31.7516 11.528 31.7144 8.82809 34.3039C5.96774 37.0475 5.25501 42.4789 6.40624 46.129C6.73978 47.3472 7.36316 48.7208 7.8366 49.8621C7.86071 49.9203 7.88859 49.9738 7.92323 50.0264C13.6044 58.6437 29.6549 72.9449 48.8657 61.788C49.7042 61.1298 50.4142 59.8287 51.2828 58.7319C52.3006 57.4464 53.6868 56.0734 54.5875 54.7127C57.298 50.6181 58.3678 45.3558 58.1796 40.5031C58.0721 37.7294 57.2836 35.564 56.3388 33.0435C56.2601 32.8337 56.2544 32.6034 56.3208 32.3893C57.4488 28.7521 58.1184 25.1059 56.3213 21.5469C56.1903 21.2878 55.9373 20.6445 55.9306 20.3661Z" fill="#4F270B"/>
<path d="M30.2283 19.0772C30.4303 18.8612 30.6355 18.6487 30.8444 18.4396C36.8457 12.4192 47.2062 13.9714 52.8163 19.625C56.4649 23.0555 55.988 26.282 55.0884 30.6472C53.0849 28.3349 51.9106 27.0718 49.4786 25.1117C43.4966 21.1071 37.4286 19.1066 30.2283 19.0772Z" fill="#69EED3"/>
<path d="M52.8162 19.625C56.4649 23.0555 55.988 26.282 55.0883 30.6472C53.0848 28.3349 51.9106 27.0718 49.4785 25.1117C49.9145 24.7757 50.306 24.6699 50.7674 24.4103C52.6991 23.3235 52.2523 21.5232 52.77 19.7773L52.8162 19.625Z" fill="#0FD2AB"/>
<path d="M39.7139 15.6122C40.5001 15.7086 41.832 15.6986 42.1118 16.5153C41.3554 17.421 38.3182 17.51 37.17 17.5706C36.4548 17.667 35.4157 17.7668 34.9695 17.1329L35.1814 16.7075C36.5297 15.6241 38.0708 15.6789 39.7139 15.6122Z" fill="#D6F8F1"/>
<path d="M14.9507 29.8413C15.9711 28.342 16.914 27.0538 18.2295 25.7877C27.2632 17.0927 43.6696 21.0643 51.5334 29.4218C51.4689 32.0264 52.2949 35.1409 50.0999 37.2075C48.3712 38.8352 46.9244 38.5528 45.226 38.9143C44.6098 38.3008 42.7551 36.8679 42.0124 36.3667C36.2917 32.5057 28.6954 29.3179 21.7352 29.0853C19.5136 29.011 17.1101 29.4541 14.9507 29.8413Z" fill="#69EED3"/>
<path d="M30.2714 23.0063C31.6892 23.171 32.3862 23.2394 33.5416 24.0969C33.8068 25.5004 26.0541 25.9359 24.7398 26.2046C23.9167 26.3566 22.0496 26.8756 21.7815 25.8302C22.789 23.4958 28.0164 22.9774 30.2714 23.0063Z" fill="#D6F8F1"/>
<path d="M51.5334 29.4218C58.4537 36.6054 57.8654 47.2587 52.0882 54.934C52.713 50.172 50.9269 45.8333 48.0504 42.0894C47.1802 40.9696 46.2367 39.9089 45.2259 38.9143C46.9243 38.5528 48.3712 38.8351 50.0998 37.2075C52.2949 35.1409 51.4688 32.0264 51.5334 29.4218Z" fill="#0FD2AB"/>
<path d="M41.2235 12.876C43.9786 11.3973 49.811 8.21397 52.6743 10.4913C53.7821 12.1476 54.1033 13.3607 54.2571 15.3409C54.3656 16.3707 54.3176 17.3041 54.2901 18.3354C52.2496 16.7515 51.0338 15.8689 48.6853 14.6895C46.8709 13.8459 45.5723 13.5276 43.6291 13.1002C42.9349 12.9553 41.9517 12.923 41.2235 12.876Z" fill="#69EED3"/>
<path d="M41.2235 12.876C43.9786 11.3973 49.811 8.21397 52.6743 10.4913C51.39 12.1416 46.3203 11.8163 44.4197 12.9771C44.2305 13.0927 43.8531 13.0947 43.6291 13.1002C42.9349 12.9553 41.9517 12.923 41.2235 12.876Z" fill="#D6F8F1"/>
<path d="M48.6823 12.0448C50.0034 12.5804 50.7609 12.8886 51.9312 13.7037C52.6201 14.1835 53.5821 15.2294 54.2571 15.341C54.3656 16.3707 54.3176 17.3042 54.2901 18.3354C52.2496 16.7515 51.0338 15.8689 48.6854 14.6896C48.8894 14.2102 48.6874 12.8002 48.6823 12.0448Z" fill="#0FD2AB"/>
<ellipse cx="29.1678" cy="47.6266" rx="22.8309" ry="14.4373" transform="rotate(26.0705 29.1678 47.6266)" fill="#69EED3"/>
<path d="M10.2846 39.5565C13.4638 35.2408 19.7438 34.8631 24.5153 36.0995C26.6397 36.6502 33.2017 38.7361 35.5234 41.1209C38.361 42.8273 42.3284 47.0876 44.1257 44.5363C44.867 43.4835 44.8449 43.033 45.3761 41.9551C48.7603 45.6566 51.3475 50.9483 50.0798 56.0323C49.6329 57.8238 48.9741 58.6647 47.9759 60.1058C45.1425 62.3625 38.9816 66.6207 25.3235 61.6918C15.1078 58.0051 10.1636 50.564 8.67927 46.6478C8.66299 46.6691 8.6467 46.6905 8.63029 46.7121C8.36873 45.6622 7.90331 44.4082 7.78811 43.3906C8.75785 43.0004 9.57086 40.5255 10.2846 39.5565ZM31.5609 43.4756C28.7676 42.4444 25.5227 41.2035 22.5285 41.1459C21.1322 41.055 19.7853 41.1287 18.5597 41.2886C13.3304 42.1443 7.51186 45.6691 21.9308 53.9115C36.9629 62.5042 41.0781 58.9978 41.2567 56.1708C41.3501 52.3743 39.0973 48.1757 31.5609 43.4756Z" fill="#0FD2AB"/>
<path d="M31.7118 43.1285C24.4622 39.0466 16.7475 41.1758 13.7964 42.7506C13.0925 42.9886 12.2298 44.0093 12.3988 45.5765C12.5284 46.7784 12.6581 47.9804 16.9453 51.6523C21.2324 55.3242 30.4571 59.6794 36.678 59.8596C41.6547 60.0038 41.9686 55.9248 41.5035 53.8673C41.2603 51.9885 38.9615 47.2105 31.7118 43.1285Z" fill="#4F270B"/>
</svg>
