<svg width="66" height="73" viewBox="0 0 66 73" fill="none" xmlns="http://www.w3.org/2000/svg">
<path d="M55.9306 20.3661C55.833 16.2201 56.8085 9.7555 51.5727 8.33038C51.5074 8.31261 51.4376 8.30209 51.37 8.29924C47.642 8.14217 44.7655 9.20225 41.5255 11.0242C40.7652 11.4518 38.9621 12.6417 38.2421 12.8762L38.2297 12.8802C33.3071 14.4838 31.2254 15.1618 28.0302 19.2298C27.8975 19.3988 27.7141 19.5242 27.5075 19.5834C22.1279 21.1257 16.8522 23.1934 14.0746 28.3033C12.2003 31.7516 11.528 31.7144 8.82812 34.3039C5.96777 37.0475 5.25504 42.4789 6.40628 46.129C6.73981 47.3472 7.36319 48.7208 7.83663 49.8621C7.86074 49.9203 7.88862 49.9738 7.92326 50.0264C13.6044 58.6437 29.655 72.9449 48.8657 61.788C49.7043 61.1298 50.4143 59.8287 51.2828 58.7319C52.3006 57.4464 53.6869 56.0734 54.5876 54.7127C57.298 50.6181 58.3679 45.3558 58.1797 40.5031C58.0722 37.7294 57.2836 35.564 56.3388 33.0435C56.2601 32.8337 56.2544 32.6034 56.3208 32.3893C57.4488 28.7521 58.1184 25.1059 56.3213 21.5469C56.1904 21.2878 55.9373 20.6445 55.9306 20.3661Z" fill="#4F270B"/>
<path d="M30.2284 19.0772C30.4304 18.8612 30.6356 18.6487 30.8444 18.4396C36.8458 12.4192 47.2062 13.9714 52.8163 19.625C56.465 23.0555 55.9881 26.282 55.0884 30.6472C53.0849 28.3349 51.9107 27.0718 49.4786 25.1117C43.4967 21.1071 37.4287 19.1066 30.2284 19.0772Z" fill="#FD968D"/>
<path d="M52.8163 19.625C56.465 23.0555 55.9881 26.282 55.0884 30.6472C53.0849 28.3349 51.9107 27.0718 49.4786 25.1117C49.9146 24.7757 50.3061 24.6699 50.7674 24.4103C52.6992 23.3235 52.2524 21.5232 52.7701 19.7773L52.8163 19.625Z" fill="#FF695C"/>
<path d="M39.7141 15.6122C40.5003 15.7086 41.8321 15.6986 42.1119 16.5153C41.3556 17.421 38.3184 17.51 37.1701 17.5706C36.455 17.667 35.4158 17.7668 34.9696 17.1329L35.1815 16.7075C36.5298 15.6241 38.0709 15.6789 39.7141 15.6122Z" fill="#FFD9D5"/>
<path d="M14.9508 29.8413C15.9712 28.3419 16.9141 27.0538 18.2296 25.7877C27.2633 17.0926 43.6696 21.0643 51.5335 29.4218C51.469 32.0264 52.295 35.1409 50.1 37.2075C48.3713 38.8352 46.9245 38.5528 45.2261 38.9143C44.6099 38.3008 42.7552 36.8679 42.0125 36.3667C36.2918 32.5057 28.6955 29.3179 21.7353 29.0853C19.5137 29.0109 17.1102 29.4541 14.9508 29.8413Z" fill="#FD968D"/>
<path d="M30.2714 23.0062C31.6892 23.1709 32.3862 23.2393 33.5416 24.0968C33.8068 25.5004 26.0541 25.9359 24.7398 26.2045C23.9167 26.3565 22.0496 26.8755 21.7815 25.8302C22.789 23.4958 28.0164 22.9774 30.2714 23.0062Z" fill="#FFD9D5"/>
<path d="M51.5334 29.4218C58.4537 36.6054 57.8654 47.2587 52.0882 54.934C52.713 50.172 50.9269 45.8333 48.0504 42.0894C47.1802 40.9696 46.2367 39.9089 45.2259 38.9143C46.9243 38.5528 48.3712 38.8352 50.0998 37.2075C52.2949 35.1409 51.4688 32.0264 51.5334 29.4218Z" fill="#FF695C"/>
<path d="M41.2236 12.876C43.9787 11.3973 49.811 8.21397 52.6744 10.4913C53.7822 12.1476 54.1034 13.3607 54.2571 15.3409C54.3657 16.3707 54.3176 17.3041 54.2901 18.3354C52.2496 16.7515 51.0338 15.8689 48.6854 14.6895C46.8709 13.8459 45.5723 13.5276 43.6291 13.1002C42.935 12.9553 41.9517 12.923 41.2236 12.876Z" fill="#FD968D"/>
<path d="M41.2236 12.876C43.9787 11.3973 49.811 8.21397 52.6744 10.4913C51.39 12.1416 46.3204 11.8163 44.4198 12.9771C44.2306 13.0927 43.8531 13.0947 43.6291 13.1002C42.935 12.9553 41.9517 12.923 41.2236 12.876Z" fill="#FFD9D5"/>
<path d="M48.6822 12.0448C50.0033 12.5804 50.7609 12.8886 51.9312 13.7037C52.6201 14.1835 53.5821 15.2294 54.2571 15.341C54.3656 16.3707 54.3176 17.3042 54.2901 18.3354C52.2496 16.7515 51.0338 15.8689 48.6853 14.6896C48.8893 14.2102 48.6873 12.8002 48.6822 12.0448Z" fill="#FF695C"/>
<ellipse cx="29.1678" cy="47.6267" rx="22.8309" ry="14.4373" transform="rotate(26.0705 29.1678 47.6267)" fill="#FD968D"/>
<path d="M10.2847 39.5568C13.4638 35.241 19.7438 34.8634 24.5153 36.0998C26.64 36.6506 33.2034 38.7371 35.5242 41.1224C38.3618 42.8293 42.329 47.0874 44.1259 44.5356C44.867 43.483 44.8451 43.0331 45.3761 41.9554C48.7604 45.657 51.3477 50.9485 50.0798 56.0326C49.633 57.824 48.9742 58.6642 47.9761 60.1051C45.1429 62.3618 38.982 66.6211 25.3235 61.6921C15.1073 58.0052 10.1636 50.5632 8.67951 46.6471C8.66305 46.6686 8.64691 46.6906 8.63032 46.7124C8.36874 45.6623 7.90349 44.4077 7.78835 43.39C8.75801 42.9995 9.57094 40.5257 10.2847 39.5568ZM31.5609 43.4759C28.7676 42.4447 25.5229 41.2028 22.5287 41.1453C21.1292 41.0541 19.7794 41.1294 18.5515 41.2901C13.3243 42.1481 7.51996 45.6729 21.9311 53.9108C36.9631 62.5035 41.0782 58.9981 41.2567 56.1711C41.3502 52.3745 39.0974 48.1761 31.5609 43.4759Z" fill="#FF695C"/>
<path d="M31.712 43.1286C24.4623 39.0467 16.7476 41.1758 13.7965 42.7506C13.0926 42.9887 12.2299 44.0093 12.3989 45.5765C12.5286 46.7785 12.6582 47.9805 16.9454 51.6523C21.2325 55.3242 30.4572 59.6795 36.6781 59.8596C41.6548 60.0038 41.9687 55.9248 41.5036 53.8673C41.2604 51.9885 38.9617 47.2105 31.712 43.1286Z" fill="#4F270B"/>
</svg>
