<svg width="77" height="86" viewBox="0 0 77 86" fill="none" xmlns="http://www.w3.org/2000/svg">
<path d="M66.6891 20.3661C66.5915 16.2201 67.5669 9.7555 62.3311 8.33038C62.2659 8.31261 62.196 8.30209 62.1284 8.29924C58.4004 8.14217 55.524 9.20225 52.2839 11.0242C51.5236 11.4518 49.7205 12.6417 49.0005 12.8762L48.9882 12.8802C44.0655 14.4838 41.9839 15.1618 38.7886 19.2298C38.6559 19.3988 38.4725 19.5242 38.266 19.5834C32.8863 21.1257 27.6107 23.1934 24.833 28.3033C22.9587 31.7516 22.2864 31.7144 19.5865 34.3039C16.7262 37.0475 16.0135 42.4789 17.1647 46.129C17.4982 47.3472 18.1216 48.7208 18.5951 49.8621C18.6192 49.9203 18.647 49.9738 18.6817 50.0264C24.3628 58.6437 40.4134 72.9449 59.6241 61.788C60.4627 61.1298 61.1727 59.8287 62.0412 58.7319C63.059 57.4464 64.4453 56.0734 65.346 54.7127C68.0564 50.6181 69.1263 45.3558 68.9381 40.5031C68.8306 37.7294 68.0421 35.564 67.0972 33.0435C67.0186 32.8337 67.0128 32.6034 67.0792 32.3893C68.2073 28.7521 68.8768 25.1059 67.0797 21.5469C66.9488 21.2878 66.6958 20.6445 66.6891 20.3661Z" fill="#4F270B"/>
<path d="M40.9868 19.0772C41.1888 18.8612 41.394 18.6487 41.6028 18.4396C47.6042 12.4192 57.9646 13.9714 63.5747 19.625C67.2234 23.0555 66.7465 26.282 65.8468 30.6472C63.8433 28.3349 62.6691 27.0718 60.237 25.1117C54.2551 21.1071 48.1871 19.1066 40.9868 19.0772Z" fill="#69EED3"/>
<path d="M63.5747 19.625C67.2234 23.0555 66.7465 26.282 65.8468 30.6472C63.8433 28.3349 62.6691 27.0718 60.237 25.1117C60.673 24.7757 61.0644 24.6699 61.5258 24.4102C63.4576 23.3235 63.0108 21.5232 63.5285 19.7773L63.5747 19.625Z" fill="#0FD2AB"/>
<path d="M50.4724 15.6122C51.2586 15.7086 52.5904 15.6986 52.8703 16.5153C52.1139 17.421 49.0767 17.51 47.9284 17.5706C47.2133 17.667 46.1741 17.7668 45.7279 17.1329L45.9398 16.7075C47.2881 15.6241 48.8292 15.6789 50.4724 15.6122Z" fill="#D6F8F1"/>
<path d="M25.7092 29.8413C26.7295 28.342 27.6724 27.0538 28.988 25.7877C38.0216 17.0926 54.428 21.0643 62.2919 29.4218C62.2274 32.0264 63.0534 35.1409 60.8584 37.2075C59.1297 38.8352 57.6829 38.5528 55.9844 38.9143C55.3683 38.3008 53.5135 36.8679 52.7709 36.3667C47.0502 32.5057 39.4539 29.3179 32.4937 29.0853C30.2721 29.011 27.8686 29.4541 25.7092 29.8413Z" fill="#69EED3"/>
<path d="M41.0298 23.0063C42.4477 23.171 43.1446 23.2394 44.3001 24.0969C44.5653 25.5004 36.8126 25.9359 35.4983 26.2046C34.6751 26.3566 32.808 26.8756 32.5399 25.8302C33.5474 23.4958 38.7749 22.9774 41.0298 23.0063Z" fill="#D6F8F1"/>
<path d="M62.2918 29.4218C69.2121 36.6054 68.6238 47.2587 62.8466 54.934C63.4715 50.172 61.6853 45.8333 58.8089 42.0894C57.9387 40.9696 56.9952 39.9089 55.9843 38.9143C57.6828 38.5528 59.1296 38.8351 60.8583 37.2075C63.0533 35.1409 62.2273 32.0264 62.2918 29.4218Z" fill="#0FD2AB"/>
<path d="M51.982 12.876C54.737 11.3974 60.5694 8.21397 63.4328 10.4913C64.5406 12.1476 64.8618 13.3607 65.0155 15.3409C65.124 16.3707 65.076 17.3041 65.0485 18.3354C63.008 16.7515 61.7922 15.8689 59.4438 14.6895C57.6293 13.8459 56.3307 13.5277 54.3875 13.1002C53.6934 12.9553 52.7101 12.923 51.982 12.876Z" fill="#69EED3"/>
<path d="M51.982 12.876C54.737 11.3974 60.5694 8.21397 63.4328 10.4913C62.1484 12.1416 57.0788 11.8163 55.1782 12.9771C54.989 13.0927 54.6115 13.0947 54.3875 13.1002C53.6934 12.9553 52.7101 12.923 51.982 12.876Z" fill="#D6F8F1"/>
<path d="M59.4407 12.0448C60.7618 12.5805 61.5194 12.8887 62.6896 13.7037C63.3785 14.1836 64.3406 15.2294 65.0156 15.341C65.1241 16.3707 65.076 17.3042 65.0486 18.3354C63.008 16.7515 61.7923 15.8689 59.4438 14.6896C59.6478 14.2102 59.4458 12.8002 59.4407 12.0448Z" fill="#0FD2AB"/>
<ellipse cx="39.9262" cy="47.6266" rx="22.8309" ry="14.4373" transform="rotate(26.0705 39.9262 47.6266)" fill="#69EED3"/>
<path d="M21.0431 39.5565C24.2222 35.2408 30.5023 34.8631 35.2737 36.0995C37.3981 36.6502 43.9602 38.7361 46.2819 41.1209C49.1195 42.8273 53.0868 47.0876 54.8842 44.5363C55.6254 43.4835 55.6034 43.033 56.1346 41.9551C59.5188 45.6566 62.106 50.9483 60.8382 56.0323C60.3914 57.8238 59.7325 58.6647 58.7343 60.1058C55.901 62.3625 49.74 66.6207 36.082 61.6918C25.8662 58.0051 20.922 50.564 19.4377 46.6478C19.4214 46.6691 19.4052 46.6905 19.3887 46.7121C19.1272 45.6621 18.6618 44.4082 18.5466 43.3906C19.5163 43.0004 20.3293 40.5255 21.0431 39.5565ZM42.3194 43.4756C39.526 42.4444 36.2811 41.2035 33.2869 41.1459C31.8907 41.055 30.5438 41.1286 29.3181 41.2886C24.0888 42.1442 18.2703 45.6691 32.6893 53.9114C47.7213 62.5042 51.8366 58.9978 52.0151 56.1708C52.1086 52.3742 49.8558 48.1757 42.3194 43.4756Z" fill="#0FD2AB"/>
<path d="M42.4703 43.1286C35.2206 39.0466 27.5059 41.1758 24.5548 42.7506C23.8509 42.9886 22.9883 44.0093 23.1573 45.5765C23.2869 46.7784 23.4166 47.9804 27.7037 51.6523C31.9908 55.3242 41.2156 59.6794 47.4364 59.8596C52.4131 60.0038 52.7271 55.9248 52.2619 53.8673C52.0188 51.9885 49.72 47.2105 42.4703 43.1286Z" fill="#4F270B"/>
<path d="M23.1674 35.4751C25.9205 35.2726 28.2575 37.6505 28.9294 40.1963C31.4325 39.5439 36.9903 39.6655 39.568 40.2242C40.2852 38.486 42.0327 36.4084 43.9478 36.2015C48.6916 35.6889 49.937 39.2077 50.5442 43.1416C50.7847 44.6992 51.327 45.4467 52.461 46.5873C54.6617 48.8008 56.5872 51.0684 56.8292 54.3529C60.2932 54.412 64.4048 55.6731 66.9237 58.1839C69.9139 61.1644 71.9714 64.6532 71.9994 69.0221C72.0128 71.1126 71.8018 73.3126 70.2826 74.8762C70.1151 74.9076 69.9469 74.9356 69.7781 74.9594C68.5323 75.1316 67.9705 74.5029 67.0317 73.7818C66.9403 75.0484 66.2846 77.5403 65.6652 78.6644C62.6993 84.046 60.5327 77.5725 59.8426 75.0756C57.2085 81.6347 53.0036 85.0692 45.9521 85.7436C41.0471 86.2128 40.0765 84.8503 42.5125 80.3791C40.4378 80.9772 37.3447 81.9504 37.3316 78.5507C37.3167 75.734 39.6313 71.2806 41.1444 68.8796C40.4781 68.9924 39.1784 69.006 38.4588 69.0484C34.2445 69.2962 29.2118 68.9933 25.2374 67.4059C25.558 68.1559 26.0318 68.922 26.3715 69.6432C27.4039 71.8355 28.374 75.1689 27.5393 77.5572C27.0125 79.0649 26.3123 79.5519 25.0083 80.2196C22.8784 79.3542 21.6708 78.0111 19.9825 77.1339C21.0586 78.3454 22.3944 80.609 22.5246 82.2685C22.6133 84.0494 20.9361 84.7722 19.4689 84.7705C14.1607 84.762 8.52349 81.9521 6.61722 76.6757C6.22764 75.5974 5.85222 74.8873 5.81638 73.7249C4.8845 74.5912 4.19014 76.081 2.73496 76.3202C2.33567 76.3864 1.99253 76.2676 1.67197 76.0173C0.676818 75.241 0.228634 72.9817 0.0833282 71.7812C-0.381106 67.9422 1.14381 63.3366 3.46325 60.3377C5.27011 58.0016 8.0177 56.7477 10.7907 56.0467C11.4444 55.8814 12.2264 55.6426 12.8971 55.5702C12.8192 52.042 13.8781 49.0622 16.1696 46.4014C16.6671 45.8237 17.1589 45.1629 17.7579 44.6922C17.7135 40.8463 19.0809 36.5384 23.1674 35.4751Z" fill="#4E280A"/>
<path d="M29.6324 42.257C31.994 41.9669 34.3306 41.8752 36.7003 42.1243C37.4736 42.2056 38.2267 42.3268 39.006 42.3402C38.9869 43.8015 38.9493 44.5567 39.3976 45.9689C40.8834 50.6499 44.3195 52.173 48.379 49.0609C48.8124 48.4844 49.4227 47.6306 49.9013 47.1199C53.0152 50.3882 57.1891 56.2376 52.9572 60.4132C51.364 61.9853 49.4253 62.5449 47.4214 63.3559C46.5405 63.7223 45.2265 64.8153 44.3205 65.3187C42.0167 66.5989 37.669 66.9626 35.0598 66.8671C29.8008 66.6747 24.2608 65.5797 20.1747 62.0089C19.737 61.7281 19.3222 61.4124 18.9343 61.0647C17.2345 59.5469 15.4709 56.6889 15.3611 54.3582C15.2318 51.6141 16.8173 48.8907 18.5435 46.9149C20.2215 48.6628 22.6291 50.721 25.2682 49.8495C28.1836 48.8869 29.1516 44.9531 29.6324 42.257Z" fill="#EB5B2A"/>
<path d="M49.9013 47.12C53.0152 50.3882 57.1891 56.2376 52.9572 60.4133C51.364 61.9853 49.4253 62.5449 47.4214 63.356C46.5406 63.7223 45.2265 64.8153 44.3205 65.3188C42.0167 66.599 37.6691 66.9626 35.0598 66.8671C29.8009 66.6747 24.2608 65.5797 20.1747 62.0089C21.7818 61.4713 24.7212 63.4733 26.506 63.5702C32.3952 63.8897 38.0348 64.0002 43.6748 61.9757C48.5437 60.2281 51.8021 56.2219 49.891 50.9045C49.6245 50.1575 49.104 49.3939 48.379 49.061C48.8125 48.4845 49.4227 47.6306 49.9013 47.12Z" fill="#E1420D"/>
<path d="M28.2755 51.794C29.4782 52.1878 30.0275 53.346 30.764 54.2839C33.8923 58.2673 36.6869 52.4308 38.6575 52.8337C38.8564 52.8744 38.9858 52.9928 39.0792 53.172C39.2682 53.5344 39.1238 54.5626 39.0105 54.9575C35.0362 59.9709 26.0876 57.4616 28.2755 51.794Z" fill="#4E280A"/>
<path d="M43.2315 83.7363C44.1639 82.2609 49.3637 75.2623 47.8487 74.0151C45.8584 73.5298 41.7394 79.4679 39.8801 78.471C38.8333 77.3782 41.6637 72.2843 42.3182 71.2611C44.0945 68.485 46.7727 65.5503 50.0679 64.7445C51.2529 64.4546 53.7165 64.4464 54.7327 65.1221C59.0568 67.389 59.2675 71.9195 57.1219 75.8901C55.0437 79.7351 52.1488 82.1497 47.9681 83.2009C46.0937 83.6031 44.8522 83.4563 43.2315 83.7363Z" fill="#EB5B2A"/>
<path d="M54.7328 65.1221C59.0569 67.389 59.2675 71.9194 57.1219 75.8901C55.0437 79.7351 52.1488 82.1497 47.9681 83.2009C48.1457 81.9537 50.1317 80.939 51.2014 80.0066C51.983 79.3236 52.7038 78.5719 53.3554 77.76C55.5853 74.9568 56.573 71.7184 55.7494 68.1726C55.5373 67.2598 54.8019 66.0418 54.7328 65.1221Z" fill="#E1420D"/>
<path d="M20.6731 82.5341C16.9616 82.2889 14.1562 82.1871 11.1739 79.512C6.43825 75.2648 6.6108 65.7603 13.094 63.3607C16.2141 62.2058 18.9012 64.2846 21.0809 66.358C23.2609 68.2587 25.4189 71.7277 25.6181 74.6887C25.9338 79.3788 22.0949 76.2023 20.5496 74.6438C20.302 74.3986 20.0664 74.1407 19.8434 73.8726C19.43 73.389 18.7848 72.5456 18.2226 72.3471C16.7388 71.8211 16.7421 73.0148 16.9315 74.0185C17.5136 77.1042 19.2324 79.8505 20.6731 82.5341Z" fill="#EB5B2A"/>
<path d="M21.0809 66.358C23.2608 68.2587 25.4189 71.7278 25.618 74.6888C25.9337 79.3788 22.0948 76.2023 20.5495 74.6438C20.302 74.3986 20.0664 74.1407 19.8433 73.8726C21.1862 71.9399 21.1235 70.3813 21.0361 68.1175C21.0155 67.5855 20.9936 66.8719 21.0809 66.358Z" fill="#E1420D"/>
<path d="M56.0064 60.3067C64.0343 59.0739 67.2601 74.323 63.4486 77.9305C62.5019 76.4611 61.7934 74.6997 61.3095 73.0317C60.3843 69.8434 59.943 66.3967 57.288 64.1176C56.2929 63.2634 55.2044 62.8223 54.0958 62.0893C54.6726 61.4624 55.3302 60.821 56.0064 60.3067Z" fill="#E1420D"/>
<path d="M10.5342 58.3833C11.673 58.0601 12.058 57.9232 13.2112 57.8858C14.23 58.4811 14.8965 59.5193 15.562 60.5047C12.5597 61.3402 8.88477 62.179 7.41287 65.2401C5.71458 68.7727 5.30272 71.0821 2.35882 73.9218C2.33328 72.9902 2.22314 70.4381 2.38836 69.6729C2.51029 64.3438 5.61478 60.1653 10.5342 58.3833Z" fill="#E1420D"/>
<path d="M10.5343 58.3832C10.126 59.3459 7.9113 62.0798 7.1802 63.1212C6.46167 64.1449 3.42174 69.6084 2.8499 69.9045C2.62754 69.8968 2.53226 69.8934 2.38837 69.6728C2.5103 64.3438 5.61478 60.1653 10.5343 58.3832Z" fill="#EB5B2A"/>
<path d="M56.5917 56.9207C57.1001 56.9163 58.8494 56.8687 59.2434 56.9321C62.2491 57.4157 64.9354 58.9253 66.8602 61.2593C69.6335 64.6222 69.933 68.238 69.5425 72.4226C68.0565 72.7322 66.156 66.5769 65.7812 65.5426C65.5236 64.8189 65.2305 64.1087 64.903 63.4148C63.8588 61.2176 61.8697 59.6857 59.6607 58.7832C58.8379 58.447 57.8684 58.2587 57.0971 57.7742C56.6927 57.5202 56.683 57.3766 56.5917 56.9207Z" fill="#E1420D"/>
<path d="M44.8936 38.4762C45.9378 38.3415 46.8942 39.0844 47.037 40.1412C47.1798 41.1981 46.4557 42.1742 45.4141 42.3289C44.3586 42.4856 43.3796 41.7397 43.2349 40.6688C43.0901 39.5977 43.8353 38.6128 44.8936 38.4762Z" fill="white"/>
<path d="M23.2619 38.0114C23.6688 37.9197 24.0942 37.9661 24.4727 38.1434C25.2157 38.4915 25.6554 39.2823 25.5643 40.1066C25.4733 40.9308 24.8719 41.6036 24.0714 41.7766C23.3333 41.9361 22.572 41.6383 22.1313 41.0176C21.6906 40.3968 21.6538 39.5707 22.0376 38.9123C22.3052 38.4534 22.7484 38.1272 23.2619 38.0114Z" fill="white"/>
</svg>
